<svg width="198" height="260" viewBox="0 0 198 260" fill="none" xmlns="http://www.w3.org/2000/svg">
<path d="M105.086 50.835C105.596 51.1256 106.597 52.0228 107.086 52.335C109.127 53.6373 111.139 55.1421 113.116 56.835L134.772 26.0011C134.572 25.1809 133.999 23.0084 133.775 22.1617C133.601 21.5033 133.78 22.1761 133.592 21.5011C126.199 26.1163 115.737 36.0032 105.086 50.835Z" fill="black"/>
<path d="M134.479 16.0011L133.592 21.5011L137.586 6.50106C137.528 6.00106 137.147 5.20106 136.092 6.00106L134.479 16.0011Z" fill="black"/>
<path d="M144.731 16.1617L133.775 22.1617L145.225 17.6617C145.562 17.1617 145.936 16.1617 144.731 16.1617Z" fill="black"/>
<path d="M46.0859 52.335C48.8652 50.9309 51.8914 49.699 55.08 48.6617C50.9133 38.773 39.4859 17.2617 29.0859 15.6617C29.0592 15.7238 29.0332 15.7875 29.0077 15.8524C28.9312 16.048 29.0758 15.6365 29.0077 15.8524C28.7111 16.7929 28.2569 18.5113 27.8833 19.4779C33.0246 26.8113 44.0811 44.4635 46.0859 52.335Z" fill="black"/>
<path d="M29.0077 15.8524L19.8017 7.04276C18.2017 6.64276 18.8017 7.87609 19.3017 8.54276L29.0077 15.8524Z" fill="black"/>
<path d="M29.0859 15.6617L31.0859 3.66167C30.6859 2.46167 29.9192 3.16167 29.5859 3.66167L29.0077 15.8524C29.0332 15.7875 29.0592 15.7238 29.0859 15.6617Z" fill="black"/>
<path d="M192.586 222.662C199.086 195.162 182.092 191.001 176.592 203.001C174.8 206.143 173.79 209.682 172.641 213.162L191.086 227.584C191.666 226.06 192.17 224.422 192.586 222.662Z" fill="black"/>
<path d="M162.086 229.203C160.938 234.513 158.741 239.077 155.586 242.738C158.394 248.913 182.605 249.867 191.086 227.584L172.641 213.162C170.737 218.925 168.945 225.856 162.086 229.203Z" fill="#D8D8D8"/>
<path d="M132.586 81.2574C136.919 65.1876 140.874 50.9386 134.772 26.0011L113.116 56.835C114.797 58.2735 116.452 59.8479 118.08 61.5494C123.234 66.9373 128.105 73.5996 132.586 81.2574Z" fill="#D8D8D8"/>
<path d="M23.58 73.4956C30.7646 63.7985 39.6637 55.5794 46.0859 52.335C44.0811 44.4635 33.0246 26.8113 27.8833 19.4779C22.2657 34.0114 14.4977 60.9824 23.58 73.4956Z" fill="#D8D8D8"/>
<path d="M40.58 140.496C37.4133 145.662 32.1859 164.435 34.5859 194.835C35.5883 226.627 29.6528 222.31 22.58 237.496C20.8406 241.23 23.5831 245.979 28.5881 248.57C28.6759 248.616 28.7644 248.661 28.8535 248.705C32.0277 250.001 35.3194 251.084 39.08 250.996C42.5909 250.913 49.7866 248.439 52.58 246.496C53.5741 241.656 54.88 238.796 58.08 235.996C62.08 232.496 64.58 229.996 65.08 227.496C65.2798 226.497 66.1114 219.969 67.0392 212.335L69.58 190.496C68.996 195.919 67.9693 204.683 67.0392 212.335C66.1114 219.969 65.2798 226.497 65.08 227.496C64.58 229.996 62.08 232.496 58.08 235.996C54.88 238.796 53.5741 241.656 52.58 246.496C52.58 247.259 55.5859 253.496 60.0859 253.496C64.0859 253.496 65.5859 253.662 71.58 253.496C76.7319 253.107 87.08 253.996 89.58 248.996C92.08 239.996 94.4239 224.628 98.5859 212.335C99.7002 218.113 104.217 229.25 112.599 233.761C113.643 234.054 114.649 234.471 115.593 235.02C116.279 235.161 116.944 235.322 117.58 235.496C116.899 235.378 116.237 235.218 115.593 235.02C114.546 234.696 113.548 234.271 112.599 233.761C102.579 230.947 89.1047 239.577 94.0859 253.162C95.3505 256.611 100.161 256.073 102.586 256.162C105.333 256.262 111.876 255.712 115.086 255.662C131.086 255.323 147.086 249.701 155.586 242.738C158.741 239.077 160.938 234.513 162.086 229.203C166.03 210.95 155.223 178.741 123.684 143.501L131.592 128.999L140 133.499L137.586 109.835L147.086 113.335C142.969 101.492 138.07 90.6291 132.586 81.2574C128.105 73.5996 123.234 66.9373 118.08 61.5494C116.452 59.8479 114.797 58.2735 113.116 56.835C111.139 55.1421 109.127 53.6373 107.086 52.335C106.597 52.0228 105.596 51.1256 105.086 50.835C91.5826 43.1474 71.2447 43.403 55.08 48.6617C51.8914 49.699 48.8652 50.9309 46.0859 52.335C39.6637 55.5794 30.7646 63.7985 23.58 73.4956C11.5859 87.9956 2.02354 105.871 3.07999 108.496L12.58 105.996C9.21862 114.779 7.51123 120.919 9.08589 130.835C12.9554 127.921 15.5279 124.868 17.58 123.496C20.6183 128.689 22.6476 133.297 26.08 141.996C29.7406 139.324 30.2817 138.514 32.08 136.496C35.8427 137.307 36.8678 137.924 40.58 140.496Z" fill="#D8D8D8"/>
<path d="M40.58 140.496L43.1378 142.063L44.6201 139.645L42.2883 138.029L40.58 140.496ZM34.5859 194.835L37.5844 194.74L37.5822 194.669L37.5766 194.599L34.5859 194.835ZM22.58 237.496L19.8605 236.229H19.8605L22.58 237.496ZM89.58 248.996L92.2633 250.337C92.3495 250.165 92.4189 249.984 92.4705 249.799L89.58 248.996ZM130.923 184.926C132.539 185.295 134.147 184.285 134.516 182.669C134.886 181.054 133.875 179.446 132.26 179.076L131.592 182.001L130.923 184.926ZM98.5859 212.335L95.7443 211.373L98.5859 212.335ZM117.58 235.496L117.07 238.452C118.648 238.724 120.161 237.71 120.508 236.147C120.856 234.584 119.916 233.024 118.372 232.602L117.58 235.496ZM94.0859 253.162L91.2693 254.194V254.194L94.0859 253.162ZM124.728 140.49C123.619 139.26 121.722 139.161 120.491 140.271C119.261 141.38 119.162 143.277 120.272 144.508L122.5 142.499L124.728 140.49ZM192.586 222.662L189.666 221.972L192.586 222.662ZM176.592 203.001L179.198 204.487L179.264 204.372L179.319 204.251L176.592 203.001ZM162.086 229.203L159.154 228.569L162.086 229.203ZM112.592 146.001L110.47 148.122L113.128 150.78L115.131 147.599L112.592 146.001ZM105.092 138.501L107.213 136.38L105.474 134.641L103.428 136.005L105.092 138.501ZM95.9277 141.005C94.5491 141.924 94.1766 143.787 95.0956 145.165C96.0147 146.544 97.8773 146.916 99.2559 145.997L97.5918 143.501L95.9277 141.005ZM137.586 109.835L138.623 107.02L134.114 105.359L134.601 110.139L137.586 109.835ZM147.086 113.335L146.049 116.15L152.003 118.344L149.92 112.35L147.086 113.335ZM107.086 52.335L108.7 49.8061V49.8061L107.086 52.335ZM3.07999 108.496L0.296986 109.616L1.2849 112.07L3.84347 111.397L3.07999 108.496ZM12.58 105.996L15.3818 107.068L17.472 101.606L11.8165 103.094L12.58 105.996ZM9.08589 130.835L6.12302 131.305L6.9054 136.232L10.8905 133.232L9.08589 130.835ZM17.58 123.496L20.1695 121.981L18.5608 119.231L15.9124 121.002L17.58 123.496ZM26.08 141.996L23.2894 143.097L24.7137 146.706L27.8484 144.419L26.08 141.996ZM32.08 136.496L32.7121 133.563L31.0028 133.195L29.8398 134.5L32.08 136.496ZM132.586 81.2574L129.997 82.7725L132.586 81.2574ZM136.092 6.00106L134.28 3.61013L133.322 4.33636L133.13 5.52336L136.092 6.00106ZM144.731 16.1617V13.1617L143.963 13.1617L143.29 13.5304L144.731 16.1617ZM134.479 16.0011L137.441 16.4788L137.441 16.4788L134.479 16.0011ZM137.586 6.50106L140.485 7.27298L140.632 6.72126L140.566 6.15415L137.586 6.50106ZM145.225 17.6617L146.322 20.4538L147.19 20.1126L147.712 19.3393L145.225 17.6617ZM55.08 48.6617L56.008 51.5145L55.08 48.6617ZM23.58 73.4956L25.8916 75.4077L25.9427 75.346L25.9905 75.2815L23.58 73.4956ZM27.8833 19.4779L25.085 18.3964L27.8833 19.4779ZM31.0859 3.66167L34.0451 4.15487L34.1676 3.41987L33.9319 2.71298L31.0859 3.66167ZM29.5859 3.66167L27.0897 1.99757L26.6286 2.68922L26.5893 3.51955L29.5859 3.66167ZM19.8017 7.04276L21.8758 4.87529L21.3011 4.32528L20.5293 4.13233L19.8017 7.04276ZM19.3017 8.54276L16.9017 10.3428L17.157 10.6832L17.4969 10.9392L19.3017 8.54276ZM29.474 248.996L28.2575 251.738L28.2764 251.746L28.2955 251.754L29.474 248.996ZM28.58 248.592L27.4354 251.365H27.4354L28.58 248.592ZM58.08 235.996L60.0555 238.253L58.08 235.996ZM65.08 227.496L68.0217 228.084L65.08 227.496ZM69.58 190.496L72.5627 190.817C72.7396 189.174 71.5555 187.698 69.9139 187.514C68.2724 187.33 66.791 188.508 66.6001 190.149L69.58 190.496ZM52.3443 188.482C51.6928 186.959 49.9297 186.252 48.4063 186.903C46.8829 187.555 46.1761 189.318 46.8275 190.841L49.5859 189.662L52.3443 188.482ZM34.4565 241.5C35.4719 240.191 35.2337 238.306 33.9244 237.291C32.6151 236.276 30.7306 236.514 29.7153 237.823L32.0859 239.662L34.4565 241.5ZM45.1906 241.15C46.0126 239.712 45.5129 237.879 44.0743 237.057C42.6358 236.235 40.8032 236.735 39.9812 238.173L42.5859 239.662L45.1906 241.15ZM66.2501 245.143C67.0118 243.672 66.4364 241.861 64.965 241.1C63.4936 240.338 61.6833 240.913 60.9217 242.385L63.5859 243.764L66.2501 245.143ZM71.58 253.496L71.6631 256.494L71.7345 256.492L71.8057 256.487L71.58 253.496ZM76.2692 246.003C77.0101 244.521 76.4095 242.719 74.9275 241.978C73.4456 241.237 71.6436 241.838 70.9026 243.32L73.5859 244.662L76.2692 246.003ZM108.192 246.647C109.013 245.208 108.511 243.376 107.072 242.555C105.632 241.735 103.8 242.236 102.98 243.676L105.586 245.162L108.192 246.647ZM120.795 246.451C121.507 244.955 120.871 243.165 119.375 242.453C117.879 241.741 116.089 242.376 115.377 243.872L118.086 245.162L120.795 246.451ZM118.08 61.5494L115.912 63.6231L118.08 61.5494ZM115.593 235.02L114.709 237.886L114.709 237.886L115.593 235.02ZM140 133.499L138.585 136.144L143.557 138.805L142.985 133.195L140 133.499ZM131.592 128.999L133.007 126.354L130.383 124.95L128.958 127.563L131.592 128.999ZM117 138.999L118.676 136.511L116.11 134.782L114.461 137.401L117 138.999ZM40.58 140.496L38.0222 138.928C36.1266 142.021 33.9534 148.475 32.5302 157.748C31.0901 167.13 30.3782 179.656 31.5952 195.071L34.5859 194.835L37.5766 194.599C36.3936 179.614 37.0954 167.554 38.4607 158.658C39.8429 149.652 41.8667 144.137 43.1378 142.063L40.58 140.496ZM34.5859 194.835L31.5874 194.929C32.0861 210.746 30.8192 217.007 28.8939 221.121C27.9038 223.237 26.7082 224.874 25.1106 227.192C23.5313 229.483 21.7295 232.216 19.8605 236.229L22.58 237.496L25.2995 238.762C26.9669 235.182 28.5593 232.761 30.0508 230.597C31.524 228.46 33.0758 226.341 34.3284 223.664C36.8884 218.193 38.0881 210.716 37.5844 194.74L34.5859 194.835ZM89.58 248.996L92.4705 249.799C93.7506 245.19 94.9937 238.944 96.3907 232.54C97.8069 226.048 99.4041 219.273 101.427 213.297L98.5859 212.335L95.7443 211.373C93.6056 217.69 91.9499 224.745 90.5286 231.261C89.0882 237.864 87.9094 243.801 86.6894 248.193L89.58 248.996ZM98.5859 212.335L101.427 213.297C104.599 203.929 108.314 195.85 113.133 190.613C115.508 188.032 118.085 186.215 120.931 185.231C123.76 184.254 127.034 184.037 130.923 184.926L131.592 182.001L132.26 179.076C127.399 177.965 122.973 178.178 118.972 179.56C114.988 180.937 111.607 183.41 108.718 186.551C103.008 192.757 98.9699 201.845 95.7443 211.373L98.5859 212.335ZM155.586 242.738L157.487 245.059C157.496 245.051 157.491 245.056 157.476 245.067C157.468 245.073 157.417 245.113 157.34 245.164C157.304 245.188 157.224 245.24 157.117 245.298C157.062 245.327 156.975 245.372 156.865 245.418C156.809 245.442 156.737 245.47 156.652 245.499C156.568 245.527 156.455 245.561 156.319 245.589C156.186 245.617 155.996 245.648 155.765 245.653C155.539 245.658 155.21 245.639 154.833 245.525C154.44 245.406 153.993 245.182 153.596 244.79C153.195 244.394 152.953 243.935 152.826 243.505C152.705 243.096 152.694 242.738 152.708 242.489C152.722 242.237 152.765 242.032 152.802 241.89C152.841 241.744 152.884 241.625 152.919 241.537C152.955 241.448 152.991 241.373 153.02 241.315C153.076 241.202 153.129 241.114 153.164 241.058C153.201 241 153.234 240.952 153.259 240.919C153.306 240.853 153.346 240.802 153.369 240.775C153.414 240.719 153.45 240.68 153.462 240.666C153.491 240.635 153.509 240.618 153.513 240.614C153.517 240.61 153.535 240.592 153.568 240.564C153.582 240.551 153.622 240.517 153.679 240.472C153.707 240.45 153.758 240.411 153.826 240.366C153.86 240.342 153.909 240.31 153.969 240.274C154.025 240.241 154.116 240.189 154.231 240.135C154.29 240.107 154.367 240.074 154.459 240.04C154.548 240.007 154.67 239.966 154.819 239.932C154.964 239.898 155.173 239.86 155.429 239.854C155.682 239.848 156.045 239.872 156.455 240.009C156.664 240.08 156.885 240.18 157.105 240.319C157.327 240.459 157.533 240.631 157.717 240.833C158.092 241.245 158.297 241.698 158.4 242.088C158.499 242.464 158.506 242.788 158.494 243.011C158.482 243.238 158.446 243.424 158.415 243.554C158.383 243.688 158.346 243.798 158.316 243.88C158.286 243.964 158.256 244.034 158.231 244.089C158.182 244.197 158.136 244.281 158.105 244.335C158.045 244.44 157.991 244.518 157.966 244.554C157.914 244.628 157.873 244.678 157.867 244.686C157.855 244.7 157.851 244.705 157.858 244.696L155.586 242.738L153.313 240.779C153.281 240.818 153.244 240.861 153.207 240.907C153.175 240.946 153.116 241.02 153.051 241.112C153.02 241.156 152.962 241.242 152.899 241.353C152.866 241.409 152.819 241.496 152.769 241.606C152.743 241.662 152.713 241.734 152.682 241.818C152.651 241.901 152.615 242.012 152.582 242.147C152.551 242.277 152.515 242.464 152.503 242.692C152.491 242.915 152.498 243.24 152.597 243.616C152.7 244.007 152.906 244.461 153.281 244.873C153.464 245.074 153.671 245.246 153.893 245.387C154.113 245.526 154.334 245.626 154.543 245.697C154.954 245.835 155.317 245.858 155.571 245.852C155.827 245.846 156.038 245.808 156.183 245.774C156.332 245.74 156.455 245.699 156.545 245.665C156.638 245.631 156.715 245.597 156.775 245.569C156.893 245.514 156.985 245.462 157.044 245.426C157.106 245.389 157.157 245.356 157.195 245.33C157.268 245.281 157.325 245.237 157.361 245.21C157.432 245.155 157.489 245.105 157.522 245.076C157.592 245.015 157.655 244.956 157.703 244.909C157.751 244.862 157.812 244.8 157.875 244.732C157.905 244.7 157.955 244.644 158.012 244.574C158.04 244.54 158.085 244.484 158.137 244.412C158.163 244.376 158.197 244.326 158.236 244.265C158.272 244.207 158.327 244.117 158.384 244.002C158.414 243.943 158.449 243.867 158.486 243.777C158.521 243.689 158.565 243.568 158.603 243.422C158.641 243.28 158.684 243.074 158.698 242.822C158.712 242.572 158.701 242.214 158.58 241.804C158.453 241.374 158.211 240.914 157.81 240.518C157.412 240.126 156.964 239.901 156.571 239.782C156.194 239.668 155.864 239.649 155.637 239.654C155.406 239.659 155.215 239.69 155.082 239.718C154.945 239.747 154.831 239.781 154.746 239.809C154.66 239.838 154.587 239.867 154.529 239.891C154.417 239.939 154.328 239.984 154.271 240.015C154.157 240.077 154.07 240.133 154.025 240.163C153.93 240.226 153.855 240.283 153.815 240.314C153.768 240.35 153.724 240.385 153.685 240.417L155.586 242.738ZM192.586 222.662L195.505 223.352C198.822 209.319 196.53 199.692 190.845 195.587C187.935 193.485 184.43 193.124 181.252 194.342C178.125 195.54 175.504 198.173 173.865 201.751L176.592 203.001L179.319 204.251C180.429 201.828 181.995 200.482 183.398 199.945C184.751 199.427 186.119 199.575 187.333 200.451C189.895 202.301 192.85 208.504 189.666 221.972L192.586 222.662ZM155.586 242.738L157.858 244.696C161.378 240.613 163.778 235.578 165.018 229.836L162.086 229.203L159.154 228.569C158.099 233.448 156.104 237.541 153.313 240.779L155.586 242.738ZM112.592 146.001L114.713 143.88L107.213 136.38L105.092 138.501L102.97 140.622L110.47 148.122L112.592 146.001ZM105.092 138.501L103.428 136.005L95.9277 141.005L97.5918 143.501L99.2559 145.997L106.756 140.997L105.092 138.501ZM137.586 109.835L136.549 112.65L146.049 116.15L147.086 113.335L148.123 110.52L138.623 107.02L137.586 109.835ZM3.07999 108.496L3.84347 111.397L13.3435 108.897L12.58 105.996L11.8165 103.094L2.31651 105.594L3.07999 108.496ZM12.58 105.996L9.77815 104.923C6.33175 113.929 4.43011 120.645 6.12302 131.305L9.08589 130.835L12.0488 130.364C10.5923 121.193 12.1055 115.629 15.3818 107.068L12.58 105.996ZM9.08589 130.835L10.8905 133.232C12.9655 131.669 14.6774 130.08 16.0682 128.774C17.5462 127.386 18.4807 126.502 19.2476 125.989L17.58 123.496L15.9124 121.002C14.6271 121.861 13.2494 123.19 11.9607 124.4C10.5848 125.693 9.07572 127.087 7.28133 128.438L9.08589 130.835ZM17.58 123.496L14.9905 125.01C17.9088 129.999 19.8705 134.432 23.2894 143.097L26.08 141.996L28.8706 140.894C25.4246 132.161 23.3277 127.379 20.1695 121.981L17.58 123.496ZM26.08 141.996L27.8484 144.419C29.7325 143.044 30.9046 142.083 31.8612 141.16C32.7871 140.267 33.4995 139.412 34.3202 138.491L32.08 136.496L29.8398 134.5C28.8622 135.598 28.4048 136.158 27.6955 136.842C27.0168 137.497 26.0881 138.276 24.3116 139.572L26.08 141.996ZM32.08 136.496L31.4479 139.428C33.2322 139.813 34.1624 140.109 35.0403 140.535C35.9856 140.993 36.9786 141.65 38.8717 142.962L40.58 140.496L42.2883 138.029C40.4692 136.769 39.0936 135.832 37.6576 135.136C36.1542 134.407 34.6906 133.989 32.7121 133.563L32.08 136.496ZM107.086 52.335L108.7 49.8061C108.703 49.808 108.641 49.7666 108.48 49.6411C108.33 49.5248 108.168 49.3945 107.966 49.2331C107.778 49.0829 107.558 48.9081 107.345 48.7477C107.149 48.6014 106.868 48.3975 106.57 48.2279L105.086 50.835L103.602 53.4421C103.559 53.4177 103.594 53.435 103.745 53.5484C103.878 53.6478 104.034 53.7712 104.221 53.9206C104.394 54.0589 104.606 54.2296 104.798 54.3785C104.977 54.518 105.224 54.7059 105.472 54.864L107.086 52.335ZM105.086 50.835L107.523 52.5849C118.038 37.9423 128.231 28.3841 135.18 24.0459L133.592 21.5011L132.003 18.9562C124.166 23.8485 113.437 34.0641 102.649 49.085L105.086 50.835ZM147.086 113.335L149.92 112.35C145.749 100.353 140.772 89.3079 135.175 79.7423L132.586 81.2574L129.997 82.7725C135.367 91.9504 140.189 102.631 144.252 114.32L147.086 113.335ZM113.116 56.835L115.067 54.556C112.994 52.7809 110.87 51.1908 108.7 49.8061L107.086 52.335L105.472 54.864C107.384 56.0838 109.284 57.5032 111.165 59.114L113.116 56.835ZM134.772 26.0011L131.858 26.7141C137.776 50.8994 133.985 64.5454 129.689 80.4763L132.586 81.2574L135.482 82.0385C139.853 65.8298 143.972 50.9778 137.686 25.288L134.772 26.0011ZM113.116 56.835L115.571 58.5592L137.227 27.7253L134.772 26.0011L132.317 24.2768L110.661 55.1107L113.116 56.835ZM133.592 21.5011L130.702 22.3081C130.75 22.4771 130.779 22.5789 130.797 22.6425C130.802 22.6603 130.822 22.7264 130.846 22.7981C130.853 22.8197 130.868 22.8624 130.888 22.9152C130.899 22.9423 130.915 22.9829 130.936 23.0315C130.955 23.0756 130.991 23.156 131.043 23.2533C131.07 23.3035 131.109 23.3729 131.16 23.453C131.209 23.5293 131.289 23.6462 131.4 23.7779C131.503 23.8994 131.699 24.1118 131.995 24.3143C132.291 24.5163 132.826 24.8026 133.556 24.8349C133.927 24.8512 134.299 24.7989 134.655 24.6778C135.006 24.5585 135.294 24.388 135.522 24.2124C135.746 24.0396 135.912 23.8605 136.032 23.711C136.152 23.5613 136.239 23.4223 136.301 23.3125C136.42 23.1014 136.488 22.9204 136.522 22.825C136.557 22.7221 136.58 22.6393 136.59 22.6021C136.599 22.5677 136.607 22.532 136.603 22.5478C136.603 22.5499 136.6 22.5627 136.596 22.5789C136.591 22.5952 136.584 22.623 136.575 22.6573C136.56 22.709 136.517 22.8587 136.437 23.0411C136.395 23.1367 136.327 23.2786 136.225 23.4401C136.126 23.5965 135.958 23.8311 135.697 24.0661C135.428 24.308 135.024 24.5834 134.475 24.7324C134.272 24.7801 133.851 24.833 133.635 24.8369C133.433 24.8264 133.041 24.7666 132.854 24.7188C132.393 24.5854 132.057 24.3688 131.844 24.2033C131.63 24.0363 131.478 23.8711 131.383 23.7572C131.285 23.6391 131.212 23.5332 131.163 23.4565C131.113 23.3776 131.073 23.3083 131.045 23.2552C130.99 23.1522 130.951 23.0662 130.93 23.0154C130.887 22.9155 130.859 22.8351 130.849 22.8041C130.836 22.7651 130.826 22.7338 130.821 22.7167C130.81 22.6831 130.803 22.6571 130.801 22.6499C130.795 22.6278 130.791 22.6108 130.799 22.6417C130.808 22.6773 130.831 22.7649 130.874 22.9286L133.775 22.1617L136.675 21.3947C136.631 21.2292 136.612 21.1541 136.6 21.1095C136.597 21.1003 136.588 21.0639 136.579 21.0327C136.576 21.0232 136.569 20.9955 136.558 20.9607C136.553 20.9431 136.543 20.9113 136.529 20.8719C136.519 20.8406 136.491 20.7599 136.448 20.6598C136.426 20.6089 136.388 20.5228 136.333 20.4197C136.304 20.3666 136.265 20.2972 136.214 20.2184C136.165 20.1416 136.092 20.0357 135.994 19.9176C135.899 19.8036 135.748 19.6385 135.533 19.4715C135.321 19.3059 134.984 19.0894 134.524 18.9559C134.336 18.9081 133.945 18.8483 133.743 18.8378C133.527 18.8418 133.105 18.8947 132.902 18.9423C132.354 19.0913 131.949 19.3668 131.681 19.6086C131.42 19.8437 131.252 20.0783 131.153 20.2347C131.051 20.3962 130.983 20.5381 130.941 20.6337C130.861 20.8161 130.818 20.9658 130.803 21.0176C130.793 21.0519 130.786 21.0797 130.782 21.0961C130.778 21.1123 130.775 21.1251 130.774 21.1273C130.77 21.1431 130.779 21.1075 130.788 21.0731C130.798 21.036 130.82 20.9532 130.856 20.8504C130.889 20.755 130.957 20.574 131.076 20.3629C131.138 20.2532 131.226 20.1142 131.345 19.9645C131.465 19.815 131.631 19.6359 131.855 19.4631C132.083 19.2875 132.371 19.1171 132.722 18.9977C133.078 18.8767 133.451 18.8243 133.821 18.8407C134.551 18.873 135.086 19.1592 135.382 19.3612C135.678 19.5637 135.874 19.776 135.977 19.8975C136.088 20.0292 136.168 20.146 136.216 20.2222C136.267 20.3022 136.306 20.3715 136.333 20.4215C136.385 20.5186 136.421 20.5987 136.44 20.6423C136.461 20.6905 136.477 20.7305 136.487 20.7569C136.507 20.8083 136.521 20.8491 136.527 20.8682C136.548 20.9296 136.561 20.9748 136.554 20.9505C136.548 20.9297 136.528 20.8626 136.481 20.694L133.592 21.5011ZM133.775 22.1617L130.874 22.9286C131.102 23.79 131.666 25.9281 131.858 26.7141L134.772 26.0011L137.686 25.288C137.477 24.4337 136.895 22.2267 136.675 21.3947L133.775 22.1617ZM133.775 22.1617L135.216 24.7929L146.172 18.7929L144.731 16.1617L143.29 13.5304L132.334 19.5304L133.775 22.1617ZM133.592 21.5011C136.554 21.9788 136.554 21.9787 136.554 21.9787C136.554 21.9787 136.554 21.9787 136.554 21.9786C136.554 21.9786 136.554 21.9785 136.554 21.9783C136.554 21.978 136.554 21.9775 136.554 21.977C136.554 21.9758 136.554 21.9739 136.555 21.9716C136.555 21.9668 136.557 21.9597 136.558 21.9502C136.561 21.9314 136.566 21.9033 136.572 21.8666C136.583 21.793 136.601 21.6846 136.623 21.545C136.669 21.2658 136.734 20.8621 136.814 20.3637C136.975 19.367 137.197 17.992 137.441 16.4788L134.479 16.0011L131.517 15.5234C131.273 17.0366 131.051 18.4116 130.891 19.4083C130.81 19.9067 130.745 20.3104 130.7 20.5896C130.678 20.7292 130.66 20.8376 130.648 20.9112C130.642 20.9479 130.638 20.976 130.635 20.9948C130.633 21.0043 130.632 21.0114 130.631 21.0162C130.631 21.0185 130.631 21.0204 130.63 21.0216C130.63 21.0222 130.63 21.0226 130.63 21.0229C130.63 21.0231 130.63 21.0231 130.63 21.0232C130.63 21.0233 130.63 21.0233 130.63 21.0233C130.63 21.0233 130.63 21.0234 133.592 21.5011ZM134.479 16.0011L137.441 16.4788C137.685 14.9655 138.088 12.4655 138.43 10.3438C138.601 9.28295 138.757 8.31669 138.87 7.61564C138.927 7.26512 138.973 6.98089 139.004 6.7843C139.02 6.686 139.032 6.60962 139.041 6.5578C139.045 6.5319 139.048 6.51214 139.05 6.49885C139.051 6.4922 139.052 6.48718 139.053 6.48382C139.053 6.48212 139.053 6.48088 139.053 6.48002C139.053 6.47963 139.053 6.47925 139.053 6.47907C139.053 6.47896 139.053 6.47888 139.054 6.47883C139.054 6.47878 139.054 6.47875 136.092 6.00106C133.13 5.52336 133.13 5.52339 133.13 5.52344C133.13 5.52349 133.13 5.52357 133.13 5.52368C133.13 5.52385 133.13 5.52425 133.13 5.52463C133.13 5.5255 133.13 5.52672 133.129 5.52843C133.129 5.53181 133.128 5.53679 133.127 5.54346C133.125 5.55674 133.122 5.57651 133.117 5.60241C133.109 5.65423 133.097 5.73062 133.081 5.82891C133.049 6.0255 133.003 6.30972 132.947 6.66025C132.834 7.3613 132.678 8.32756 132.507 9.3884C132.164 11.5101 131.761 14.0101 131.517 15.5234L134.479 16.0011ZM133.592 21.5011L136.491 22.273L140.485 7.27298L137.586 6.50106L134.687 5.72913L130.693 20.7291L133.592 21.5011ZM137.586 6.50106L140.566 6.15415C140.502 5.60569 140.223 4.20001 138.923 3.29842C138.15 2.7624 137.214 2.56048 136.287 2.70926C135.45 2.8436 134.775 3.23506 134.28 3.61013L136.092 6.00106L137.904 8.39198C137.937 8.36705 137.705 8.55851 137.238 8.63347C136.681 8.72288 136.042 8.60221 135.503 8.22869C135.039 7.90686 134.828 7.52327 134.745 7.34028C134.656 7.14544 134.621 6.97955 134.606 6.84796L137.586 6.50106ZM133.775 22.1617L134.872 24.9538L146.322 20.4538L145.225 17.6617L144.128 14.8696L132.677 19.3696L133.775 22.1617ZM145.225 17.6617L147.712 19.3393C147.901 19.0586 148.1 18.7046 148.257 18.3008C148.402 17.9267 148.588 17.3131 148.553 16.5795C148.513 15.7616 148.178 14.7226 147.218 13.9676C146.356 13.2891 145.387 13.1617 144.731 13.1617V16.1617V19.1617C144.677 19.1617 144.114 19.1592 143.509 18.6839C142.807 18.132 142.584 17.3743 142.56 16.8689C142.539 16.4477 142.644 16.1779 142.662 16.1319C142.692 16.0562 142.717 16.0147 142.738 15.984L145.225 17.6617ZM134.479 16.0011L131.517 15.5234L130.63 21.0234L133.592 21.5011L136.554 21.9788L137.441 16.4788L134.479 16.0011ZM136.092 6.00106L133.13 5.52336L131.517 15.5234L134.479 16.0011L137.441 16.4788L139.054 6.47875L136.092 6.00106ZM105.086 50.835L106.57 48.2279C92.0749 39.9756 70.785 40.3978 54.1519 45.8088L55.08 48.6617L56.008 51.5145C71.7044 46.4082 91.0903 46.3193 103.602 53.4421L105.086 50.835ZM55.08 48.6617L54.1519 45.8088C50.8319 46.8889 47.6623 48.1776 44.7332 49.6573L46.0859 52.335L47.4386 55.0127C50.0682 53.6843 52.9509 52.5091 56.008 51.5145L55.08 48.6617ZM55.08 48.6617L57.8446 47.4968C55.7034 42.4153 51.7133 34.3762 46.8937 27.3555C44.485 23.8468 41.8073 20.5011 38.9826 17.8967C36.2052 15.336 33.0044 13.2292 29.542 12.6966L29.0859 15.6617L28.6297 18.6268C30.3673 18.8941 32.495 20.0763 34.9155 22.3079C37.2885 24.4959 39.6781 27.4461 41.9471 30.7513C46.4829 37.3584 50.2898 45.0193 52.3153 49.8266L55.08 48.6617ZM46.0859 52.335L44.7332 49.6573C37.725 53.1977 28.4923 61.826 21.1695 71.7096L23.58 73.4956L25.9905 75.2815C33.0368 65.7711 41.6024 57.9611 47.4386 55.0127L46.0859 52.335ZM23.58 73.4956L21.2683 71.5834C15.1489 78.9814 9.66269 87.2216 5.82808 93.9661C3.91338 97.3338 2.37708 100.387 1.37672 102.816C0.879958 104.023 0.48267 105.154 0.247911 106.135C0.130696 106.625 0.0365181 107.149 0.00864339 107.669C-0.0168707 108.145 -0.00329351 108.87 0.296986 109.616L3.07999 108.496L5.86299 107.375C6.03121 107.793 5.99569 108.071 6.00005 107.99C6.00204 107.953 6.01668 107.809 6.08326 107.531C6.21608 106.976 6.48624 106.166 6.92479 105.101C7.79506 102.987 9.20089 100.173 11.044 96.9316C14.725 90.4573 20.017 82.5097 25.8916 75.4077L23.58 73.4956ZM27.8833 19.4779L25.085 18.3964C22.2327 25.7757 18.8055 36.3789 17.252 46.8021C15.7298 57.0145 15.8591 67.9653 21.1521 75.2578L23.58 73.4956L26.0079 71.7334C22.2186 66.5127 21.6907 57.7213 23.1864 47.6866C24.6507 37.8626 27.9163 27.7136 30.6815 20.5595L27.8833 19.4779ZM46.0859 52.335L48.9931 51.5946C47.8728 47.1958 44.389 40.4712 40.7567 34.2009C37.0574 27.8149 32.9616 21.4955 30.3397 17.7558L27.8833 19.4779L25.4268 21.2001C27.9463 24.7937 31.9494 30.9671 35.5649 37.2084C39.2474 43.5655 42.2942 49.6027 43.1787 53.0754L46.0859 52.335ZM29.0859 15.6617L32.0451 16.1549L34.0451 4.15487L31.0859 3.66167L28.1267 3.16847L26.1267 15.1685L29.0859 15.6617ZM29.0859 15.6617L26.3293 14.4779C26.2887 14.5724 26.2504 14.6662 26.2142 14.7586L29.0077 15.8524L31.8012 16.9461C31.8159 16.9087 31.8296 16.8753 31.8424 16.8455L29.0859 15.6617ZM29.0077 15.8524L32.0044 15.9945L32.5825 3.80378L29.5859 3.66167L26.5893 3.51955L26.0111 15.7103L29.0077 15.8524ZM29.5859 3.66167L32.082 5.32576C32.0616 5.35647 32.0277 5.40377 31.9565 5.47058C31.9146 5.5098 31.6642 5.74603 31.1961 5.89059C30.6027 6.07385 29.7403 6.06559 28.985 5.52566C28.6732 5.30277 28.4858 5.05999 28.3846 4.89992C28.2849 4.74215 28.2463 4.62984 28.2398 4.61036L31.0859 3.66167L33.9319 2.71298C33.738 2.13133 33.3423 1.26505 32.4742 0.644548C31.4523 -0.0860081 30.3024 -0.113014 29.4257 0.157743C28.6742 0.389808 28.1446 0.819785 27.8528 1.09337C27.5315 1.39457 27.2769 1.71686 27.0897 1.99757L29.5859 3.66167ZM29.0077 15.8524L26.2142 14.7586C26.2124 14.7634 26.2135 14.7605 26.2167 14.7526C26.2181 14.7492 26.2296 14.7207 26.2471 14.6814C26.2549 14.6638 26.2751 14.6185 26.3038 14.5613C26.318 14.5329 26.3443 14.4815 26.3802 14.4185C26.3986 14.3863 26.4254 14.3407 26.4597 14.2872C26.4916 14.2375 26.5464 14.1551 26.6218 14.0586C26.6606 14.009 26.7139 13.944 26.7812 13.8712C26.8461 13.8009 26.9438 13.7018 27.0731 13.5949C27.1283 13.5503 27.2513 13.4584 27.3193 13.4116C27.4013 13.3588 27.5854 13.2532 27.688 13.2016C27.8123 13.1454 28.0911 13.043 28.2457 12.9992C28.4299 12.9586 28.8306 12.9107 29.0458 12.9074C29.2845 12.9218 29.7669 13.0105 30.007 13.0863C30.2407 13.1823 30.6678 13.4234 30.8596 13.5648C31.0232 13.7057 31.3002 13.9992 31.415 14.1478C31.506 14.2809 31.6544 14.5381 31.7136 14.6605C31.7595 14.7661 31.8331 14.9652 31.8621 15.0578C31.8845 15.1376 31.92 15.287 31.9338 15.3563C31.9646 15.5212 31.9761 15.6599 31.9809 15.7555C31.9859 15.8545 31.9852 15.9385 31.9832 16.0015C31.9811 16.0657 31.9773 16.1212 31.9735 16.1651C31.9661 16.2509 31.9563 16.3209 31.9491 16.3668C31.9416 16.4149 31.9341 16.4553 31.9283 16.4851C31.9223 16.5156 31.9166 16.5418 31.912 16.5624C31.9029 16.6027 31.8947 16.6355 31.8891 16.6568C31.8833 16.6793 31.8781 16.698 31.8743 16.7118C31.8668 16.7386 31.8604 16.7596 31.8568 16.7716C31.8494 16.7956 31.8438 16.8128 31.8418 16.8188C31.8374 16.8323 31.835 16.8392 31.8347 16.8399C31.8346 16.8402 31.8317 16.8486 31.8258 16.8642C31.8233 16.8707 31.8154 16.8918 31.8038 16.9204C31.7982 16.9344 31.787 16.9617 31.7719 16.9962C31.7642 17.0139 31.7525 17.04 31.7376 17.0714C31.7243 17.0998 31.6991 17.1519 31.6646 17.2158C31.6469 17.2485 31.6208 17.2953 31.5872 17.3505C31.57 17.3787 31.5485 17.4128 31.5231 17.451C31.498 17.4887 31.4651 17.5362 31.4248 17.5898C31.3855 17.6422 31.3303 17.7121 31.2599 17.7907C31.2306 17.8229 31.1659 17.8908 31.1305 17.9262C31.0891 17.9661 30.9969 18.0499 30.9458 18.0934C30.885 18.1427 30.7479 18.2448 30.6712 18.2968C30.5784 18.3552 30.3675 18.4714 30.2488 18.5275C30.1048 18.5873 29.78 18.6917 29.5993 18.7327C29.3871 18.7661 28.93 18.7863 28.6877 18.7687C28.4305 18.7281 27.9272 18.5792 27.6852 18.4713C27.4646 18.3492 27.0755 18.0668 26.9073 17.9114C26.7713 17.7664 26.546 17.4753 26.4547 17.3325C26.3845 17.2091 26.2708 16.9738 26.2258 16.8632C26.1915 16.7693 26.1365 16.593 26.1149 16.511C26.0985 16.4411 26.0723 16.3099 26.0621 16.2489C26.0396 16.1041 26.0316 15.9824 26.0285 15.8976C26.0253 15.81 26.0265 15.7354 26.0285 15.6789C26.0306 15.6214 26.0341 15.5717 26.0375 15.5319C26.0442 15.4543 26.0527 15.3908 26.0589 15.3487C26.0712 15.2661 26.0844 15.2014 26.0914 15.1685C26.0993 15.1311 26.1065 15.1007 26.1113 15.0809C26.1208 15.042 26.129 15.0122 26.1329 14.9981C26.1409 14.9689 26.147 14.9492 26.1475 14.9475C26.1488 14.943 26.1488 14.9432 26.1467 14.9499L29.0077 15.8524L31.8688 16.7548C31.8752 16.7346 31.882 16.7127 31.8887 16.6904C31.8947 16.671 31.9046 16.6377 31.9154 16.5988C31.9207 16.5798 31.9299 16.546 31.9401 16.504C31.9453 16.4826 31.9528 16.4509 31.961 16.4124C31.9682 16.3783 31.9816 16.3126 31.994 16.2293C32.0003 16.1868 32.0088 16.123 32.0155 16.0451C32.0189 16.0052 32.0224 15.9553 32.0245 15.8977C32.0266 15.8412 32.0277 15.7664 32.0245 15.6787C32.0214 15.5938 32.0134 15.472 31.9909 15.3271C31.9808 15.2661 31.9546 15.1349 31.9381 15.0649C31.9165 14.983 31.8615 14.8066 31.8272 14.7127C31.7822 14.6021 31.6685 14.3668 31.5983 14.2433C31.5069 14.1005 31.2816 13.8094 31.1456 13.6644C30.9774 13.5089 30.5883 13.2265 30.3677 13.1044C30.1256 12.9965 29.6223 12.8476 29.3651 12.807C29.1228 12.7894 28.6657 12.8096 28.4534 12.8431C28.2727 12.8841 27.9479 12.9884 27.8039 13.0483C27.6852 13.1043 27.4743 13.2206 27.3815 13.279C27.3047 13.331 27.1676 13.4331 27.1068 13.4824C27.0557 13.5259 26.9634 13.6097 26.922 13.6497C26.8865 13.6852 26.8219 13.7531 26.7925 13.7853C26.722 13.864 26.6668 13.9339 26.6274 13.9864C26.5871 14.0401 26.5542 14.0877 26.529 14.1255C26.5035 14.1638 26.482 14.198 26.4647 14.2263C26.4309 14.2817 26.4046 14.3288 26.3868 14.3619C26.3519 14.4264 26.3264 14.4793 26.3125 14.5086C26.2972 14.541 26.2851 14.5682 26.2768 14.5871C26.2606 14.6241 26.2482 14.6544 26.2411 14.6719C26.2267 14.7074 26.2154 14.7374 26.2091 14.754C26.1956 14.7899 26.1835 14.8236 26.1744 14.8497C26.1651 14.8761 26.1537 14.9091 26.1422 14.944C26.1367 14.9608 26.128 14.9877 26.1183 15.0195C26.1134 15.0355 26.106 15.0601 26.0977 15.0899C26.0934 15.1051 26.0878 15.1253 26.0817 15.1489C26.0758 15.1715 26.0673 15.2054 26.058 15.2466C26.0533 15.2678 26.0475 15.2944 26.0414 15.3253C26.0355 15.3555 26.0279 15.3963 26.0204 15.4447C26.0132 15.491 26.0034 15.5612 25.9959 15.6473C25.9921 15.6914 25.9882 15.747 25.9862 15.8113C25.9842 15.8744 25.9835 15.9585 25.9885 16.0575C25.9933 16.1532 26.0048 16.292 26.0356 16.4569C26.0494 16.5263 26.085 16.6757 26.1073 16.7555C26.1363 16.8482 26.21 17.0473 26.2558 17.1529C26.3151 17.2753 26.4635 17.5326 26.5545 17.6656C26.6693 17.8143 26.9463 18.1078 27.1099 18.2488C27.3017 18.3902 27.7289 18.6312 27.9626 18.7272C28.2027 18.803 28.6851 18.8918 28.9238 18.9062C29.139 18.9028 29.5398 18.855 29.7239 18.8143C29.8786 18.7706 30.1574 18.6681 30.2818 18.6119C30.3844 18.5603 30.5685 18.4547 30.6505 18.4019C30.7186 18.3551 30.8416 18.2632 30.8968 18.2186C31.0261 18.1116 31.1239 18.0125 31.1889 17.9421C31.2562 17.8692 31.3096 17.8041 31.3484 17.7544C31.424 17.6577 31.479 17.5752 31.511 17.5252C31.5455 17.4714 31.5725 17.4255 31.5911 17.3929C31.6274 17.3292 31.6542 17.2768 31.669 17.2473C31.6988 17.1878 31.7204 17.1396 31.73 17.118C31.751 17.0708 31.7673 17.0309 31.775 17.0119C31.7846 16.9884 31.7935 16.9659 31.8012 16.9461L29.0077 15.8524ZM29.0077 15.8524L26.1467 14.9499C25.7615 16.1712 25.4207 17.528 25.085 18.3964L27.8833 19.4779L30.6815 20.5595C31.0932 19.4946 31.6607 17.4146 31.8688 16.7548L29.0077 15.8524ZM29.0077 15.8524L31.0819 13.6849L21.8758 4.87529L19.8017 7.04276L17.7276 9.21023L26.9336 18.0199L29.0077 15.8524ZM29.0077 15.8524L30.8125 13.456L21.1065 6.14633L19.3017 8.54276L17.4969 10.9392L27.203 18.2488L29.0077 15.8524ZM19.3017 8.54276L21.7017 6.74276C21.6848 6.72019 21.6664 6.69377 21.6501 6.66794C21.6332 6.64122 21.6262 6.62736 21.6272 6.62924C21.6281 6.63102 21.633 6.64099 21.6406 6.65901C21.648 6.67666 21.6603 6.70772 21.6743 6.75132C21.6973 6.82299 21.7523 7.01121 21.7622 7.28308C21.7721 7.55505 21.7406 8.04015 21.4589 8.57131C21.1514 9.15122 20.6693 9.55125 20.1718 9.76698C19.7292 9.95891 19.3681 9.96751 19.2284 9.96416C19.0779 9.96055 19.0146 9.93832 19.0741 9.95319L19.8017 7.04276L20.5293 4.13233C19.9907 3.99769 18.8973 3.77981 17.7847 4.26229C17.1263 4.54781 16.534 5.05149 16.1582 5.7603C15.8081 6.42036 15.75 7.05963 15.7662 7.50244C15.796 8.31602 16.0947 8.98061 16.2606 9.31252C16.4596 9.71046 16.6941 10.0659 16.9017 10.3428L19.3017 8.54276ZM29.474 248.996L28.2955 251.754C28.301 251.757 28.3113 251.761 28.3238 251.766C28.33 251.769 28.3404 251.773 28.3533 251.778C28.3626 251.782 28.3902 251.793 28.4256 251.807C28.442 251.813 28.4794 251.827 28.5274 251.843C28.5516 251.851 28.6103 251.869 28.645 251.88C28.6988 251.895 28.8469 251.93 28.9416 251.949C29.145 251.979 29.9913 251.954 30.6093 251.777C32.0754 250.502 32.2076 247.749 31.7266 247.01C31.5512 246.828 31.2729 246.593 31.1823 246.528C31.1307 246.493 31.0449 246.439 31.0111 246.418C30.9485 246.381 30.8982 246.354 30.881 246.345C30.8574 246.333 30.8383 246.323 30.8271 246.318C30.8047 246.306 30.7868 246.298 30.7787 246.294C30.7506 246.28 30.7262 246.269 30.7236 246.268C30.7147 246.264 30.706 246.26 30.699 246.257C30.672 246.244 30.6323 246.226 30.5894 246.207C30.5011 246.168 30.3752 246.111 30.2531 246.057C30.1289 246.001 30.0086 245.947 29.9258 245.91C29.8819 245.89 29.8578 245.879 29.8496 245.875C29.8481 245.874 29.852 245.876 29.859 245.879C29.8625 245.881 29.87 245.885 29.8798 245.889C29.8866 245.893 29.9098 245.904 29.9397 245.919C29.9534 245.926 29.9856 245.943 30.0261 245.965C30.0463 245.976 30.0814 245.996 30.1244 246.022C30.155 246.04 30.2494 246.098 30.3628 246.182C30.4242 246.229 30.5776 246.357 30.6673 246.441C30.8187 246.6 31.2105 247.159 31.3997 247.583C31.574 248.589 30.8338 250.563 29.9522 251.255C29.4564 251.457 28.6864 251.588 28.4395 251.587C28.3056 251.578 28.0898 251.551 28.0078 251.536C27.9526 251.525 27.8582 251.503 27.8189 251.493C27.7389 251.473 27.6768 251.453 27.6481 251.444C27.5872 251.424 27.5404 251.406 27.5245 251.4C27.5028 251.392 27.4855 251.386 27.4756 251.382C27.4559 251.374 27.441 251.368 27.4354 251.365L28.58 248.592L29.7246 245.819C29.716 245.816 29.6986 245.809 29.6771 245.8C29.6663 245.796 29.6482 245.789 29.6258 245.78C29.6092 245.774 29.5619 245.757 29.5007 245.737C29.4718 245.727 29.4096 245.708 29.3294 245.687C29.29 245.677 29.1956 245.655 29.1404 245.644C29.0583 245.629 28.8424 245.602 28.7085 245.593C28.4616 245.592 27.6916 245.723 27.1958 245.925C26.3142 246.617 25.574 248.591 25.7482 249.598C25.9375 250.022 26.3293 250.58 26.4807 250.739C26.5704 250.823 26.7238 250.952 26.7853 250.999C26.8988 251.083 26.9932 251.14 27.024 251.159C27.0671 251.185 27.1024 251.205 27.1228 251.216C27.1637 251.238 27.1964 251.255 27.2108 251.263C27.2608 251.288 27.3036 251.308 27.3054 251.309C27.319 251.315 27.3313 251.321 27.3399 251.325C27.3723 251.34 27.4164 251.36 27.4593 251.379C27.5499 251.42 27.6768 251.477 27.8 251.532C27.9251 251.588 28.0466 251.643 28.1321 251.681C28.176 251.701 28.2048 251.714 28.2187 251.72C28.2403 251.73 28.2122 251.717 28.1783 251.701C28.1708 251.697 28.1535 251.689 28.1315 251.678C28.1205 251.672 28.1016 251.663 28.0782 251.65C28.0611 251.641 28.011 251.615 27.9485 251.578C27.9147 251.557 27.8289 251.503 27.7773 251.468C27.6868 251.403 27.4085 251.168 27.233 250.986C26.7521 250.247 26.8843 247.494 28.3504 246.219C28.9683 246.042 29.8147 246.017 30.018 246.047C30.1127 246.066 30.2608 246.101 30.3145 246.116C30.3492 246.127 30.4079 246.145 30.432 246.153C30.4799 246.169 30.5171 246.183 30.5333 246.189C30.5684 246.202 30.5955 246.213 30.6042 246.217C30.6164 246.222 30.626 246.226 30.6314 246.228C30.6421 246.232 30.6499 246.236 30.6524 246.237L29.474 248.996ZM52.58 246.496L55.5186 247.099C56.4325 242.65 57.5119 240.479 60.0555 238.253L58.08 235.996L56.1045 233.738C52.2481 237.112 50.7156 240.662 49.6413 245.892L52.58 246.496ZM58.08 235.996L60.0555 238.253C62.0588 236.5 63.8253 234.88 65.163 233.331C66.4897 231.795 67.6236 230.074 68.0217 228.084L65.08 227.496L62.1382 226.907C62.0363 227.417 61.6703 228.196 60.622 229.41C59.5847 230.611 58.1012 231.991 56.1045 233.738L58.08 235.996ZM65.08 227.496L68.0217 228.084C68.251 226.938 69.1014 220.233 70.0173 212.697L67.0392 212.335L64.0612 211.973C63.1213 219.706 62.3085 226.056 62.1382 226.907L65.08 227.496ZM67.0392 212.335L70.0173 212.697C70.9479 205.04 71.9766 196.26 72.5627 190.817L69.58 190.496L66.5972 190.174C66.0154 195.577 64.9906 204.326 64.0612 211.973L67.0392 212.335ZM69.58 190.496L66.6001 190.149L64.0593 211.988L67.0392 212.335L70.0191 212.682L72.5599 190.842L69.58 190.496ZM49.5859 189.662L46.8275 190.841C48.057 193.716 50.7067 198.826 53.9903 203.618C55.6359 206.02 57.4833 208.405 59.437 210.409C61.3588 212.381 63.5511 214.159 65.9133 215.116L67.0392 212.335L68.1652 209.554C66.9111 209.046 65.4018 207.933 63.7335 206.221C62.0969 204.542 60.4654 202.453 58.94 200.227C55.8816 195.763 53.421 191 52.3443 188.482L49.5859 189.662ZM39.08 250.996L39.1506 253.995C41.3715 253.942 44.397 253.183 47.0571 252.286C49.7257 251.387 52.5442 250.175 54.2932 248.958L52.58 246.496L50.8668 244.033C49.8224 244.759 47.6464 245.756 45.1411 246.6C42.6273 247.447 40.2994 247.966 39.0094 247.996L39.08 250.996ZM39.08 250.996L42.0085 251.646C43.0626 246.903 43.4754 244.152 45.1906 241.15L42.5859 239.662L39.9812 238.173C37.6964 242.172 37.0973 246.088 36.1514 250.345L39.08 250.996ZM60.0859 253.496V250.496C59.2433 250.496 58.1396 249.858 56.9947 248.416C56.4771 247.764 56.0662 247.086 55.7938 246.551C55.6574 246.283 55.5716 246.082 55.5283 245.966C55.5061 245.906 55.5061 245.899 55.5156 245.935C55.5206 245.954 55.5334 246.004 55.5461 246.079C55.5571 246.143 55.58 246.293 55.58 246.496H52.58H49.58C49.58 246.937 49.6723 247.307 49.7141 247.465C49.7698 247.677 49.8388 247.881 49.9076 248.065C50.0462 248.437 50.2304 248.848 50.4462 249.272C50.878 250.121 51.4998 251.145 52.2961 252.148C53.7792 254.015 56.4285 256.496 60.0859 256.496V253.496ZM60.0859 253.496L62.8433 254.677C63.671 252.746 64.2205 250.863 64.7045 249.282C65.2075 247.639 65.6398 246.322 66.2501 245.143L63.5859 243.764L60.9217 242.385C60.032 244.104 59.4643 245.902 58.9673 247.526C58.4513 249.211 58.0008 250.745 57.3285 252.314L60.0859 253.496ZM89.58 248.996L86.8967 247.654C86.6805 248.086 86.2179 248.566 85.2145 249.014C84.1944 249.469 82.8329 249.79 81.1953 249.999C79.5767 250.205 77.8438 250.284 76.1288 250.333C74.4848 250.38 72.7355 250.4 71.3543 250.504L71.58 253.496L71.8057 256.487C73.0004 256.397 74.4766 256.382 76.3 256.33C78.0523 256.28 80.0287 256.196 81.9536 255.951C83.8596 255.708 85.8758 255.289 87.6601 254.493C89.461 253.689 91.2294 252.405 92.2633 250.337L89.58 248.996ZM71.58 253.496L71.4969 250.497C65.5346 250.662 64.2671 250.496 60.0859 250.496V253.496V256.496C63.9047 256.496 65.6372 256.661 71.6631 256.494L71.58 253.496ZM71.58 253.496L74.3374 254.677C75.2925 252.449 75.4436 250.565 75.5707 249.162C75.6973 247.765 75.7978 246.946 76.2692 246.003L73.5859 244.662L70.9026 243.32C69.874 245.377 69.7216 247.225 69.5952 248.62C69.4693 250.009 69.3675 251.042 68.8225 252.314L71.58 253.496ZM94.0859 253.162L91.2693 254.194C92.4388 257.384 95.2583 258.484 97.3549 258.872C99.2998 259.232 101.699 259.131 102.477 259.16L102.586 256.162L102.695 253.164C101.047 253.104 99.8291 253.228 98.4464 252.972C97.2154 252.744 96.9977 252.388 96.9025 252.129L94.0859 253.162ZM102.586 256.162L105.561 256.546C106.109 252.307 106.786 249.113 108.192 246.647L105.586 245.162L102.98 243.676C100.941 247.252 100.165 251.487 99.6107 255.777L102.586 256.162ZM115.086 255.662L115.149 258.661C131.658 258.311 148.354 252.54 157.487 245.059L155.586 242.738L153.685 240.417C145.818 246.862 130.514 252.334 115.022 252.662L115.086 255.662ZM102.586 256.162L102.477 259.16C104.018 259.216 106.496 259.092 108.827 258.963C111.259 258.829 113.605 258.685 115.133 258.661L115.086 255.662L115.039 252.662C113.356 252.688 110.826 252.844 108.497 252.973C106.068 253.107 103.901 253.208 102.695 253.164L102.586 256.162ZM115.086 255.662L115.133 258.661C115.153 258.661 115.169 258.661 115.181 258.661C115.193 258.66 115.201 258.66 115.204 258.66C115.206 258.66 115.206 258.66 115.203 258.66C115.202 258.66 115.2 258.66 115.196 258.66C115.194 258.66 115.191 258.66 115.188 258.66C115.184 258.66 115.179 258.66 115.173 258.66C115.17 258.66 115.166 258.66 115.161 258.66C115.156 258.66 115.15 258.66 115.143 258.66C115.135 258.66 115.125 258.66 115.111 258.66C115.105 258.659 115.092 258.659 115.085 258.659C115.077 258.659 115.057 258.658 115.046 258.657C115.032 258.657 114.998 258.655 114.978 258.653C114.95 258.651 114.878 258.645 114.834 258.64C114.757 258.63 114.507 258.584 114.338 258.539C113.725 258.283 112.182 255.745 113.06 253.539C113.601 253.11 114.397 252.765 114.571 252.723C114.649 252.708 114.771 252.689 114.815 252.683C114.843 252.679 114.891 252.674 114.911 252.673C114.925 252.671 114.951 252.669 114.962 252.668C114.971 252.668 114.986 252.667 114.993 252.666C114.999 252.666 115.01 252.665 115.015 252.665C115.026 252.664 115.036 252.664 115.042 252.664C115.049 252.663 115.054 252.663 115.059 252.663C115.063 252.663 115.067 252.663 115.07 252.662C115.076 252.662 115.08 252.662 115.083 252.662C115.086 252.662 115.089 252.662 115.091 252.662C115.095 252.662 115.097 252.662 115.099 252.662C115.1 252.662 115.101 252.661 115.101 252.661C115.102 252.661 115.101 252.661 115.099 252.662C115.096 252.662 115.09 252.662 115.083 252.662C115.068 252.662 115.049 252.663 115.029 252.663C115.01 252.663 114.991 252.664 114.976 252.664C114.968 252.664 114.963 252.664 114.96 252.664C114.958 252.664 114.958 252.664 114.958 252.664C114.959 252.664 114.96 252.664 114.961 252.664C114.963 252.664 114.966 252.664 114.97 252.664C114.972 252.664 114.975 252.664 114.978 252.664C114.982 252.664 114.987 252.664 114.994 252.664C114.997 252.664 115.002 252.664 115.007 252.664C115.012 252.664 115.019 252.664 115.027 252.664C115.03 252.664 115.038 252.664 115.042 252.664C115.047 252.664 115.057 252.665 115.062 252.665C115.069 252.665 115.084 252.665 115.092 252.666C115.103 252.666 115.127 252.667 115.14 252.668C115.158 252.669 115.202 252.672 115.228 252.673C115.267 252.677 115.374 252.689 115.442 252.698C115.582 252.723 116.164 252.904 116.577 253.119C117.897 254.927 116.95 257.934 116.075 258.46C115.865 258.533 115.56 258.609 115.47 258.625C115.422 258.633 115.342 258.643 115.312 258.646C115.291 258.649 115.255 258.652 115.239 258.653C115.228 258.654 115.207 258.656 115.198 258.657C115.191 258.657 115.177 258.658 115.171 258.658C115.166 258.659 115.157 258.659 115.153 258.659C115.142 258.66 115.134 258.66 115.128 258.661C115.122 258.661 115.117 258.661 115.113 258.661C115.109 258.661 115.106 258.662 115.103 258.662C115.098 258.662 115.093 258.662 115.091 258.662C115.088 258.662 115.085 258.662 115.083 258.662C115.08 258.662 115.078 258.663 115.077 258.663C115.075 258.663 115.074 258.663 115.076 258.663C115.08 258.663 115.088 258.662 115.101 258.662C115.113 258.662 115.129 258.661 115.149 258.661L115.086 255.662L115.022 252.662C115.001 252.663 114.983 252.663 114.968 252.664C114.953 252.664 114.941 252.664 114.93 252.664C114.925 252.665 114.919 252.665 114.913 252.665C114.909 252.665 114.905 252.665 114.9 252.665C114.898 252.665 114.895 252.665 114.891 252.665C114.887 252.666 114.883 252.666 114.877 252.666C114.874 252.666 114.87 252.666 114.866 252.666C114.862 252.667 114.857 252.667 114.85 252.667C114.844 252.667 114.836 252.668 114.826 252.668C114.821 252.669 114.812 252.669 114.807 252.669C114.801 252.67 114.787 252.671 114.78 252.671C114.771 252.672 114.75 252.673 114.739 252.674C114.723 252.676 114.687 252.679 114.666 252.681C114.635 252.685 114.556 252.695 114.507 252.703C114.417 252.719 114.113 252.795 113.903 252.867C113.028 253.394 112.081 256.401 113.4 258.209C113.814 258.424 114.396 258.605 114.536 258.63C114.604 258.639 114.71 258.651 114.75 258.654C114.776 258.656 114.82 258.659 114.838 258.66C114.851 258.661 114.875 258.662 114.886 258.662C114.894 258.662 114.909 258.663 114.916 258.663C114.921 258.663 114.932 258.663 114.936 258.663C114.94 258.664 114.948 258.664 114.951 258.664C114.96 258.664 114.967 258.664 114.972 258.664C114.977 258.664 114.982 258.664 114.986 258.664C114.993 258.664 114.998 258.664 115.002 258.664C115.006 258.664 115.01 258.664 115.013 258.664C115.018 258.664 115.023 258.664 115.026 258.664C115.029 258.664 115.032 258.664 115.035 258.664C115.04 258.664 115.044 258.663 115.049 258.663C115.057 258.663 115.067 258.663 115.076 258.663C115.095 258.663 115.118 258.662 115.14 258.662C115.162 258.661 115.185 258.661 115.204 258.661C115.213 258.66 115.223 258.66 115.231 258.66C115.236 258.66 115.24 258.66 115.245 258.66C115.248 258.66 115.251 258.66 115.254 258.66C115.257 258.659 115.261 258.659 115.266 258.659C115.269 258.659 115.272 258.659 115.276 258.659C115.279 258.659 115.285 258.659 115.291 258.658C115.294 258.658 115.298 258.658 115.302 258.658C115.307 258.658 115.313 258.658 115.319 258.657C115.326 258.657 115.336 258.656 115.347 258.656C115.352 258.656 115.363 258.655 115.369 258.655C115.376 258.654 115.392 258.653 115.4 258.652C115.411 258.652 115.437 258.649 115.451 258.648C115.471 258.646 115.519 258.641 115.547 258.638C115.591 258.632 115.714 258.613 115.792 258.598C115.966 258.556 116.762 258.21 117.303 257.781C118.18 255.576 116.638 253.038 116.024 252.781C115.855 252.737 115.606 252.691 115.528 252.68C115.484 252.676 115.412 252.669 115.384 252.667C115.365 252.666 115.331 252.664 115.316 252.663C115.305 252.663 115.286 252.662 115.277 252.662C115.27 252.662 115.257 252.661 115.251 252.661C115.237 252.661 115.226 252.661 115.219 252.661C115.211 252.66 115.205 252.66 115.2 252.66C115.195 252.66 115.191 252.66 115.188 252.66C115.181 252.66 115.175 252.66 115.171 252.66C115.167 252.66 115.164 252.66 115.161 252.66C115.156 252.66 115.151 252.66 115.148 252.66C115.142 252.661 115.135 252.661 115.13 252.661C115.12 252.661 115.107 252.661 115.093 252.661C115.078 252.661 115.06 252.662 115.039 252.662L115.086 255.662ZM115.086 255.662L118.065 256.013C118.432 252.902 119.195 249.81 120.795 246.451L118.086 245.162L115.377 243.872C113.458 247.904 112.539 251.644 112.107 255.311L115.086 255.662ZM132.586 81.2574L135.175 79.7423C130.603 71.9286 125.597 65.0675 120.248 59.4757L118.08 61.5494L115.912 63.6231C120.871 68.8072 125.607 75.2705 129.997 82.7725L132.586 81.2574ZM118.08 61.5494L120.248 59.4757C118.557 57.7081 116.829 56.0644 115.067 54.556L113.116 56.835L111.165 59.114C112.764 60.4827 114.348 61.9877 115.912 63.6231L118.08 61.5494ZM162.086 229.203L163.402 231.899C171.624 227.886 173.717 219.469 175.489 214.103L172.641 213.162L169.792 212.221C167.757 218.38 166.266 223.825 160.77 226.507L162.086 229.203ZM172.641 213.162L175.489 214.103C176.698 210.444 177.596 207.296 179.198 204.487L176.592 203.001L173.986 201.514C172.004 204.99 170.882 208.921 169.792 212.221L172.641 213.162ZM155.586 242.738L152.855 243.98C154.164 246.859 157.431 248.374 160.486 249.04C163.764 249.754 167.776 249.732 171.903 248.751C180.237 246.769 189.262 240.809 193.89 228.651L191.086 227.584L188.282 226.517C184.428 236.642 177.107 241.346 170.514 242.914C167.177 243.708 164.079 243.682 161.764 243.177C159.224 242.624 158.411 241.704 158.317 241.496L155.586 242.738ZM191.086 227.584L193.89 228.651C194.518 226.999 195.06 225.234 195.505 223.352L192.586 222.662L189.666 221.972C189.279 223.609 188.813 225.121 188.282 226.517L191.086 227.584ZM172.641 213.162L170.793 215.525L189.238 229.947L191.086 227.584L192.934 225.221L174.489 210.798L172.641 213.162ZM115.593 235.02L114.988 237.958C115.609 238.086 116.212 238.232 116.788 238.389L117.58 235.496L118.372 232.602C117.675 232.411 116.949 232.236 116.199 232.082L115.593 235.02ZM117.58 235.496L118.09 232.539C117.538 232.444 117.001 232.314 116.478 232.153L115.593 235.02L114.709 237.886C115.473 238.122 116.26 238.312 117.07 238.452L117.58 235.496ZM137.586 109.835L134.601 110.139L137.016 133.804L140 133.499L142.985 133.195L140.57 109.531L137.586 109.835ZM140 133.499L141.416 130.854L133.007 126.354L131.592 128.999L130.176 131.644L138.585 136.144L140 133.499ZM162.086 229.203L165.018 229.836C167.17 219.88 165.236 206.605 158.96 191.567C152.657 176.464 141.87 159.322 125.92 141.5L123.684 143.501L121.449 145.502C137.037 162.92 147.423 179.502 153.422 193.878C159.449 208.316 160.946 220.272 159.154 228.569L162.086 229.203ZM123.684 143.501L125.92 141.5C125.792 141.358 125.669 141.243 125.596 141.177C125.513 141.103 125.431 141.033 125.361 140.975C125.224 140.861 125.072 140.74 124.956 140.649C124.825 140.545 124.731 140.47 124.657 140.409C124.622 140.38 124.608 140.368 124.608 140.368C124.609 140.368 124.619 140.378 124.636 140.394C124.652 140.409 124.685 140.442 124.728 140.49L122.5 142.499L120.272 144.508C120.398 144.648 120.52 144.76 120.593 144.826C120.675 144.9 120.756 144.969 120.826 145.027C120.962 145.14 121.115 145.26 121.23 145.352C121.36 145.455 121.454 145.529 121.526 145.589C121.561 145.618 121.574 145.63 121.573 145.629C121.572 145.628 121.561 145.618 121.543 145.601C121.527 145.585 121.493 145.551 121.449 145.502L123.684 143.501ZM131.592 128.999L128.958 127.563L121.05 142.065L123.684 143.501L126.318 144.937L134.226 130.435L131.592 128.999ZM22.58 237.496L19.8605 236.229C18.4877 239.176 18.9973 242.323 20.4296 244.914C21.8543 247.49 24.2682 249.712 27.2088 251.235L28.5881 248.57L29.9674 245.906C27.903 244.837 26.4431 243.389 25.6802 242.01C24.9249 240.644 24.9329 239.549 25.2995 238.762L22.58 237.496ZM28.5881 248.57L27.209 251.235C27.3127 251.288 27.4176 251.341 27.5235 251.394L28.8535 248.705L30.1835 246.016C30.1112 245.98 30.0391 245.943 29.9673 245.906L28.5881 248.57ZM28.8535 248.705L27.7195 251.482C31.0037 252.823 34.7604 254.098 39.1506 253.995L39.08 250.996L39.0094 247.996C35.8784 248.07 33.0516 247.178 29.9876 245.927L28.8535 248.705ZM98.5859 212.335L95.6402 212.903C96.259 216.112 97.7806 220.65 100.26 225.007C102.729 229.346 106.306 233.781 111.178 236.403L112.599 233.761L114.021 231.119C110.511 229.23 107.638 225.841 105.475 222.039C103.321 218.255 102.027 214.336 101.532 211.767L98.5859 212.335ZM112.599 233.761L111.788 236.649C112.602 236.877 113.372 237.199 114.086 237.613L115.593 235.02L117.101 232.426C115.927 231.743 114.685 231.23 113.411 230.872L112.599 233.761ZM115.593 235.02L116.478 232.153C115.627 231.89 114.808 231.543 114.021 231.119L112.599 233.761L111.178 236.403C112.287 236.999 113.464 237.502 114.709 237.886L115.593 235.02ZM112.599 233.761L113.41 230.872C107.364 229.175 100.454 230.925 95.7398 235.055C90.8555 239.335 88.3306 246.18 91.2693 254.194L94.0859 253.162L96.9025 252.129C94.86 246.558 96.5816 242.295 99.6942 239.568C102.977 236.691 107.814 235.533 111.788 236.649L112.599 233.761ZM28.58 248.592L27.4354 251.365C27.5296 251.404 27.6243 251.443 27.7195 251.482L28.8535 248.705L29.9876 245.927C29.9002 245.892 29.8125 245.856 29.7246 245.819L28.58 248.592ZM28.58 248.592L31.394 249.632C31.397 249.624 31.3999 249.616 31.4029 249.608L28.5881 248.57L25.7734 247.532C25.7709 247.539 25.7684 247.546 25.7659 247.553L28.58 248.592ZM28.5881 248.57L31.4029 249.608C32.1837 247.491 32.6476 245.591 32.9956 244.468C33.3619 243.285 33.724 242.445 34.4565 241.5L32.0859 239.662L29.7153 237.823C28.3901 239.532 27.756 241.105 27.2642 242.692C26.7541 244.339 26.4979 245.568 25.7734 247.532L28.5881 248.57ZM28.8535 248.705L27.5234 251.394C27.7643 251.513 28.0091 251.628 28.2575 251.738L29.474 248.996L30.6905 246.253C30.5183 246.177 30.3494 246.098 30.1836 246.016L28.8535 248.705ZM112.592 146.001L115.131 147.599L119.539 140.597L117 138.999L114.461 137.401L110.053 144.403L112.592 146.001ZM117 138.999L115.324 141.487L122.008 145.989L123.684 143.501L125.36 141.013L118.676 136.511L117 138.999Z" fill="black"/>
<ellipse cx="79.5859" cy="218.662" rx="4" ry="5" fill="black"/>
<circle cx="96.0859" cy="182.162" r="5.5" fill="black"/>
<ellipse cx="103.586" cy="159.162" rx="5" ry="6.5" fill="black"/>
<ellipse cx="125.086" cy="161.662" rx="5.5" ry="7" fill="black"/>
<ellipse cx="85.5859" cy="164.162" rx="4" ry="4.5" fill="black"/>
<circle cx="63.5859" cy="156.662" r="4" fill="black"/>
<ellipse cx="97.9522" cy="73.364" rx="3.74156" ry="4.5" transform="rotate(26.7425 97.9522 73.364)" fill="black"/>
<ellipse cx="49.1068" cy="71.9224" rx="3.43075" ry="4.5" transform="rotate(15.7067 49.1068 71.9224)" fill="black"/>
<circle cx="69.5859" cy="172.662" r="4" fill="black"/>
<ellipse cx="44.5859" cy="171.162" rx="4" ry="4.5" fill="black"/>
<ellipse cx="57.5859" cy="184.162" rx="4" ry="4.5" fill="black"/>
<ellipse cx="42.5859" cy="193.162" rx="4" ry="4.5" fill="black"/>
<circle cx="55.5859" cy="214.662" r="4" fill="black"/>
<circle cx="49.5859" cy="226.662" r="4" fill="black"/>
<ellipse cx="44.0859" cy="211.662" rx="3.5" ry="4" fill="black"/>
<ellipse cx="45.0859" cy="156.162" rx="3.5" ry="4.5" fill="black"/>
<circle cx="25.0859" cy="119.162" r="3.5" fill="black"/>
<ellipse cx="80.5859" cy="199.662" rx="4" ry="5" fill="black"/>
<circle cx="117.586" cy="221.662" r="4" fill="black"/>
<ellipse cx="143.086" cy="233.662" rx="4.5" ry="4" fill="black"/>
<ellipse cx="131.586" cy="221.162" rx="5" ry="5.5" fill="black"/>
<ellipse cx="149.586" cy="209.162" rx="5" ry="5.5" fill="black"/>
<ellipse cx="144.586" cy="189.162" rx="5" ry="4.5" fill="black"/>
<ellipse cx="127.086" cy="198.162" rx="5.5" ry="6.5" fill="black"/>
<ellipse cx="113.086" cy="206.662" rx="4.5" ry="4" fill="black"/>
<ellipse cx="91.0859" cy="205.662" rx="4.5" ry="4" fill="black"/>
<ellipse cx="83.0859" cy="232.662" rx="3.5" ry="4" fill="black"/>
<ellipse cx="97.5859" cy="93.1617" rx="6" ry="7.5" fill="black"/>
<ellipse cx="46.5859" cy="90.1617" rx="6" ry="7.5" fill="black"/>
<path d="M95.0859 53.6617L93.0859 63.6617M60.5859 53.1617L60.0859 63.1617" stroke="black" stroke-width="5" stroke-linecap="round"/>
<path d="M78.0001 51.9991L77.0075 68.8739L77.0001 68.9991" stroke="black" stroke-width="5" stroke-linecap="round"/>
<path d="M119.586 92.6617C120.919 92.3283 124.986 92.3617 130.586 95.1617M124.086 105.162L129.086 112.662M114.086 119.162L117.586 125.662M22.5859 86.1617C24.0859 84.8283 28.1859 82.6617 32.5859 84.6617M21.0001 102.662L24.5001 97.1617" stroke="black" stroke-width="5" stroke-linecap="round"/>
<path d="M60.0859 106.162V103.662C59.0987 103.662 58.2038 104.243 57.8022 105.145C57.4005 106.046 57.5672 107.1 58.2277 107.834L60.0859 106.162ZM78.5859 106.162L80.3984 107.884C81.0868 107.159 81.2775 106.094 80.8832 105.175C80.4889 104.257 79.5854 103.662 78.5859 103.662V106.162ZM90.7165 123.557C91.7631 122.656 91.8815 121.078 90.981 120.031C90.0804 118.984 88.5019 118.866 87.4553 119.767L89.0859 121.662L90.7165 123.557ZM49.6661 117.275C48.9002 116.126 47.348 115.816 46.1992 116.582C45.0504 117.347 44.7399 118.9 45.5058 120.048L47.5859 118.662L49.6661 117.275ZM60.0859 106.162V108.662H78.5859V106.162V103.662H60.0859V106.162ZM78.5859 106.162L76.7734 104.44L67.2734 114.44L69.0859 116.162L70.8984 117.884L80.3984 107.884L78.5859 106.162ZM69.0859 116.162L70.9442 114.489L61.9442 104.489L60.0859 106.162L58.2277 107.834L67.2277 117.834L69.0859 116.162ZM69.0859 116.162L66.5908 116.006C66.4543 118.19 66.5706 120.724 67.1548 123.079C67.7287 125.393 68.8349 127.847 70.9308 129.448C73.1569 131.149 76.0375 131.544 79.3423 130.569C82.5502 129.622 86.2967 127.36 90.7165 123.557L89.0859 121.662L87.4553 119.767C83.2752 123.364 80.1592 125.114 77.9265 125.773C75.7906 126.404 74.6525 125.999 73.9661 125.475C73.1495 124.851 72.4494 123.656 72.0077 121.875C71.5763 120.136 71.4676 118.133 71.5811 116.318L69.0859 116.162ZM69.0859 116.162L66.7539 115.261C66.1117 116.923 65.1655 118.764 63.9875 120.348C62.7942 121.953 61.4809 123.138 60.1557 123.728C58.9323 124.273 57.5948 124.37 55.9956 123.62C54.2877 122.819 52.1336 120.976 49.6661 117.275L47.5859 118.662L45.5058 120.048C48.2382 124.147 51.0175 126.808 53.8731 128.147C56.8375 129.537 59.6937 129.408 62.1912 128.295C64.5868 127.227 66.5214 125.32 68 123.331C69.4939 121.322 70.6435 119.067 71.4179 117.063L69.0859 116.162Z" fill="black"/>
<path d="M130.086 46.6617L117.586 58.1617L128.086 60.6617M117.586 58.1617L130.086 55.1617M32.0859 39.1617L40.5859 53.1617H29.5859M40.5859 53.1617L30.5859 47.1617" stroke="black" stroke-width="4" stroke-linecap="round" stroke-linejoin="bevel"/>
</svg>
