<svg width="198" height="260" viewBox="0 0 198 260" fill="none" xmlns="http://www.w3.org/2000/svg">
<path d="M105.086 50.8349C105.596 51.1255 106.597 52.0227 107.086 52.3349C109.127 53.6372 111.139 55.142 113.116 56.8349L134.772 26.001C134.572 25.1808 133.999 23.0083 133.775 22.1616C133.601 21.5032 133.78 22.176 133.592 21.501C126.199 26.1162 115.737 36.0031 105.086 50.8349Z" fill="black"/>
<path d="M134.479 16.001L133.592 21.501L137.586 6.50099C137.528 6.00099 137.147 5.20099 136.092 6.00099L134.479 16.001Z" fill="black"/>
<path d="M144.731 16.1616L133.775 22.1616L145.225 17.6616C145.562 17.1616 145.936 16.1616 144.731 16.1616Z" fill="black"/>
<path d="M46.0859 52.3349C48.8652 50.9309 51.8914 49.6989 55.08 48.6616C50.9133 38.7729 39.4859 17.2616 29.0859 15.6616C29.0592 15.7238 29.0332 15.7874 29.0077 15.8523C29.0758 15.6365 28.9312 16.0479 29.0077 15.8523C28.7111 16.7928 28.2569 18.5112 27.8833 19.4779C33.0246 26.8112 44.0811 44.4634 46.0859 52.3349Z" fill="black"/>
<path d="M29.0077 15.8523L19.8017 7.0427C18.2017 6.6427 18.8017 7.87603 19.3017 8.5427L29.0077 15.8523Z" fill="black"/>
<path d="M29.0859 15.6616L31.0859 3.66161C30.6859 2.46161 29.9192 3.16161 29.5859 3.66161L29.0077 15.8523C29.0332 15.7874 29.0592 15.7238 29.0859 15.6616Z" fill="black"/>
<path d="M192.586 222.662C199.086 195.162 182.092 191.001 176.592 203.001C174.8 206.143 173.79 209.682 172.641 213.162L191.086 227.584C191.666 226.06 192.17 224.422 192.586 222.662Z" fill="black"/>
<path d="M162.086 229.203C160.938 234.513 158.741 239.077 155.586 242.738C158.394 248.913 182.605 249.867 191.086 227.584L172.641 213.162C170.737 218.925 168.945 225.856 162.086 229.203Z" fill="#969696"/>
<path d="M132.586 81.2573C136.919 65.1875 140.874 50.9385 134.772 26.001L113.116 56.8349C114.797 58.2735 116.452 59.8479 118.08 61.5494C123.234 66.9373 128.105 73.5995 132.586 81.2573Z" fill="#969696"/>
<path d="M23.58 73.4955C30.7646 63.7985 39.6637 55.5793 46.0859 52.3349C44.0811 44.4634 33.0246 26.8112 27.8833 19.4779C22.2657 34.0113 14.4977 60.9823 23.58 73.4955Z" fill="#969696"/>
<path d="M40.58 140.496C37.4133 145.662 32.1859 164.435 34.5859 194.835C35.5883 226.627 29.6528 222.31 22.58 237.496C20.8406 241.23 23.5831 245.979 28.5881 248.57C28.6759 248.616 28.7644 248.661 28.8535 248.705C32.0277 250.001 35.3194 251.084 39.08 250.996C42.5909 250.913 49.7866 248.439 52.58 246.496C53.5741 241.656 54.88 238.796 58.08 235.996C62.08 232.496 64.58 229.996 65.08 227.496C65.2798 226.497 66.1114 219.969 67.0392 212.335L69.58 190.496C68.996 195.919 67.9693 204.683 67.0392 212.335C66.1114 219.969 65.2798 226.497 65.08 227.496C64.58 229.996 62.08 232.496 58.08 235.996C54.88 238.796 53.5741 241.656 52.58 246.496C52.58 247.259 55.5859 253.496 60.0859 253.496C64.0859 253.496 65.5859 253.662 71.58 253.496C76.7319 253.107 87.08 253.996 89.58 248.996C92.08 239.996 94.4239 224.628 98.5859 212.335C99.7002 218.113 104.217 229.25 112.599 233.761C113.643 234.054 114.649 234.471 115.593 235.02C116.279 235.161 116.944 235.321 117.58 235.496C116.899 235.378 116.237 235.218 115.593 235.02C114.546 234.696 113.548 234.271 112.599 233.761C102.579 230.947 89.1047 239.577 94.0859 253.162C95.3505 256.611 100.161 256.073 102.586 256.162C105.333 256.262 111.876 255.712 115.086 255.662C131.086 255.323 147.086 249.701 155.586 242.738C158.741 239.077 160.938 234.513 162.086 229.203C166.03 210.95 155.223 178.741 123.684 143.501L131.592 128.999L140 133.499L137.586 109.835L147.086 113.335C142.969 101.492 138.07 90.6291 132.586 81.2573C128.105 73.5995 123.234 66.9373 118.08 61.5494C116.452 59.8479 114.797 58.2735 113.116 56.8349C111.139 55.142 109.127 53.6372 107.086 52.3349C106.597 52.0227 105.596 51.1255 105.086 50.8349C91.5826 43.1474 71.2447 43.4029 55.08 48.6616C51.8914 49.6989 48.8652 50.9309 46.0859 52.3349C39.6637 55.5793 30.7646 63.7985 23.58 73.4955C11.5859 87.9955 2.02354 105.871 3.07999 108.496L12.58 105.996C9.21862 114.779 7.51123 120.919 9.08589 130.835C12.9554 127.921 15.5279 124.868 17.58 123.496C20.6183 128.689 22.6476 133.297 26.08 141.996C29.7406 139.324 30.2817 138.514 32.08 136.496C35.8427 137.307 36.8678 137.924 40.58 140.496Z" fill="#969696"/>
<path d="M40.58 140.496L43.1378 142.063L44.6201 139.645L42.2883 138.029L40.58 140.496ZM34.5859 194.835L37.5844 194.74L37.5822 194.669L37.5766 194.599L34.5859 194.835ZM22.58 237.496L19.8605 236.229H19.8605L22.58 237.496ZM89.58 248.996L92.2633 250.337C92.3495 250.165 92.4189 249.984 92.4705 249.798L89.58 248.996ZM130.923 184.925C132.539 185.295 134.147 184.285 134.516 182.669C134.886 181.054 133.875 179.445 132.26 179.076L131.592 182.001L130.923 184.925ZM98.5859 212.335L95.7443 211.373L98.5859 212.335ZM117.58 235.496L117.07 238.452C118.648 238.724 120.161 237.709 120.508 236.147C120.856 234.584 119.916 233.024 118.372 232.602L117.58 235.496ZM94.0859 253.162L91.2693 254.194V254.194L94.0859 253.162ZM124.728 140.49C123.619 139.26 121.722 139.161 120.491 140.271C119.261 141.38 119.162 143.277 120.272 144.508L122.5 142.499L124.728 140.49ZM192.586 222.662L189.666 221.972L192.586 222.662ZM176.592 203.001L179.198 204.487L179.264 204.372L179.319 204.251L176.592 203.001ZM162.086 229.203L159.154 228.569L162.086 229.203ZM112.592 146.001L110.47 148.122L113.128 150.78L115.131 147.599L112.592 146.001ZM105.092 138.501L107.213 136.38L105.474 134.641L103.428 136.005L105.092 138.501ZM95.9277 141.005C94.5491 141.924 94.1766 143.786 95.0956 145.165C96.0147 146.544 97.8773 146.916 99.2559 145.997L97.5918 143.501L95.9277 141.005ZM137.586 109.835L138.623 107.02L134.114 105.359L134.601 110.139L137.586 109.835ZM147.086 113.335L146.049 116.15L152.003 118.344L149.92 112.35L147.086 113.335ZM107.086 52.3349L108.7 49.806V49.806L107.086 52.3349ZM3.07999 108.496L0.296986 109.616L1.2849 112.07L3.84347 111.397L3.07999 108.496ZM12.58 105.996L15.3818 107.068L17.472 101.606L11.8165 103.094L12.58 105.996ZM9.08589 130.835L6.12302 131.305L6.9054 136.232L10.8905 133.231L9.08589 130.835ZM17.58 123.496L20.1695 121.981L18.5608 119.231L15.9124 121.002L17.58 123.496ZM26.08 141.996L23.2894 143.097L24.7137 146.706L27.8484 144.419L26.08 141.996ZM32.08 136.496L32.7121 133.563L31.0028 133.194L29.8398 134.5L32.08 136.496ZM132.586 81.2573L129.997 82.7724L132.586 81.2573ZM136.092 6.00099L134.28 3.61007L133.322 4.33629L133.13 5.5233L136.092 6.00099ZM144.731 16.1616V13.1616L143.963 13.1616L143.29 13.5303L144.731 16.1616ZM134.479 16.001L137.441 16.4787L137.441 16.4787L134.479 16.001ZM137.586 6.50099L140.485 7.27292L140.632 6.7212L140.566 6.15409L137.586 6.50099ZM145.225 17.6616L146.322 20.4537L147.19 20.1125L147.712 19.3392L145.225 17.6616ZM55.08 48.6616L56.008 51.5144L55.08 48.6616ZM23.58 73.4955L25.8916 75.4077L25.9427 75.3459L25.9905 75.2815L23.58 73.4955ZM27.8833 19.4779L25.085 18.3963L27.8833 19.4779ZM31.0859 3.66161L34.0451 4.1548L34.1676 3.41981L33.9319 2.71292L31.0859 3.66161ZM29.5859 3.66161L27.0897 1.99751L26.6286 2.68916L26.5893 3.51949L29.5859 3.66161ZM19.8017 7.0427L21.8758 4.87523L21.3011 4.32521L20.5293 4.13227L19.8017 7.0427ZM19.3017 8.5427L16.9017 10.3427L17.157 10.6831L17.4969 10.9391L19.3017 8.5427ZM29.474 248.996L28.2575 251.738L28.2764 251.746L28.2955 251.754L29.474 248.996ZM28.58 248.592L27.4354 251.365H27.4354L28.58 248.592ZM58.08 235.996L60.0555 238.253L58.08 235.996ZM65.08 227.496L68.0217 228.084L65.08 227.496ZM69.58 190.496L72.5627 190.817C72.7396 189.174 71.5555 187.698 69.9139 187.514C68.2724 187.33 66.791 188.508 66.6001 190.149L69.58 190.496ZM52.3443 188.482C51.6928 186.959 49.9297 186.252 48.4063 186.903C46.8829 187.555 46.1761 189.318 46.8275 190.841L49.5859 189.662L52.3443 188.482ZM34.4565 241.5C35.4719 240.191 35.2337 238.306 33.9244 237.291C32.6151 236.276 30.7306 236.514 29.7153 237.823L32.0859 239.662L34.4565 241.5ZM45.1906 241.15C46.0126 239.711 45.5129 237.879 44.0743 237.057C42.6358 236.235 40.8032 236.735 39.9812 238.173L42.5859 239.662L45.1906 241.15ZM66.2501 245.143C67.0118 243.672 66.4364 241.861 64.965 241.1C63.4936 240.338 61.6833 240.913 60.9217 242.385L63.5859 243.764L66.2501 245.143ZM71.58 253.496L71.6631 256.494L71.7345 256.492L71.8057 256.487L71.58 253.496ZM76.2692 246.003C77.0101 244.521 76.4095 242.719 74.9275 241.978C73.4456 241.237 71.6436 241.838 70.9026 243.32L73.5859 244.662L76.2692 246.003ZM108.192 246.647C109.013 245.208 108.511 243.376 107.072 242.555C105.632 241.735 103.8 242.236 102.98 243.676L105.586 245.162L108.192 246.647ZM120.795 246.451C121.507 244.955 120.871 243.165 119.375 242.453C117.879 241.741 116.089 242.376 115.377 243.872L118.086 245.162L120.795 246.451ZM118.08 61.5494L115.912 63.6231L118.08 61.5494ZM115.593 235.02L114.709 237.886L114.709 237.886L115.593 235.02ZM140 133.499L138.585 136.144L143.557 138.805L142.985 133.195L140 133.499ZM131.592 128.999L133.007 126.354L130.383 124.949L128.958 127.563L131.592 128.999ZM117 138.999L118.676 136.511L116.11 134.782L114.461 137.401L117 138.999ZM40.58 140.496L38.0222 138.928C36.1266 142.021 33.9534 148.475 32.5302 157.748C31.0901 167.13 30.3782 179.655 31.5952 195.071L34.5859 194.835L37.5766 194.599C36.3936 179.614 37.0954 167.553 38.4607 158.658C39.8429 149.652 41.8667 144.137 43.1378 142.063L40.58 140.496ZM34.5859 194.835L31.5874 194.929C32.0861 210.746 30.8192 217.007 28.8939 221.121C27.9038 223.237 26.7082 224.874 25.1106 227.192C23.5313 229.483 21.7295 232.216 19.8605 236.229L22.58 237.496L25.2995 238.762C26.9669 235.182 28.5593 232.761 30.0508 230.597C31.524 228.459 33.0758 226.341 34.3284 223.664C36.8884 218.193 38.0881 210.716 37.5844 194.74L34.5859 194.835ZM89.58 248.996L92.4705 249.798C93.7506 245.19 94.9937 238.944 96.3907 232.54C97.8069 226.048 99.4041 219.273 101.427 213.297L98.5859 212.335L95.7443 211.373C93.6056 217.69 91.9499 224.745 90.5286 231.261C89.0882 237.864 87.9094 243.801 86.6894 248.193L89.58 248.996ZM98.5859 212.335L101.427 213.297C104.599 203.929 108.314 195.85 113.133 190.613C115.508 188.032 118.085 186.215 120.931 185.231C123.76 184.254 127.034 184.037 130.923 184.925L131.592 182.001L132.26 179.076C127.399 177.965 122.973 178.178 118.972 179.56C114.988 180.937 111.607 183.41 108.718 186.551C103.008 192.757 98.9699 201.845 95.7443 211.373L98.5859 212.335ZM155.586 242.738L157.487 245.059C157.496 245.051 157.491 245.056 157.476 245.067C157.468 245.073 157.417 245.113 157.34 245.164C157.304 245.188 157.224 245.24 157.117 245.298C157.062 245.327 156.975 245.371 156.865 245.418C156.809 245.442 156.737 245.47 156.652 245.499C156.568 245.527 156.455 245.561 156.319 245.589C156.186 245.617 155.996 245.648 155.765 245.653C155.539 245.658 155.21 245.639 154.833 245.525C154.44 245.406 153.993 245.182 153.596 244.789C153.195 244.394 152.953 243.934 152.826 243.505C152.705 243.096 152.694 242.737 152.708 242.489C152.722 242.237 152.765 242.032 152.802 241.89C152.841 241.744 152.884 241.625 152.919 241.537C152.955 241.448 152.991 241.373 153.02 241.315C153.076 241.202 153.129 241.114 153.164 241.058C153.201 241 153.234 240.952 153.259 240.918C153.306 240.852 153.346 240.802 153.369 240.775C153.414 240.719 153.45 240.68 153.462 240.666C153.491 240.635 153.509 240.617 153.513 240.613C153.517 240.61 153.535 240.592 153.568 240.564C153.582 240.551 153.622 240.517 153.679 240.472C153.707 240.45 153.758 240.411 153.826 240.365C153.86 240.342 153.909 240.31 153.969 240.274C154.025 240.241 154.116 240.189 154.231 240.135C154.29 240.107 154.367 240.074 154.459 240.04C154.548 240.007 154.67 239.966 154.819 239.932C154.964 239.898 155.173 239.86 155.429 239.854C155.682 239.848 156.045 239.872 156.455 240.009C156.664 240.08 156.885 240.18 157.105 240.319C157.327 240.459 157.533 240.631 157.717 240.833C158.092 241.245 158.297 241.697 158.4 242.088C158.499 242.464 158.506 242.788 158.494 243.011C158.482 243.238 158.446 243.424 158.415 243.554C158.383 243.688 158.346 243.798 158.316 243.88C158.286 243.964 158.256 244.034 158.231 244.089C158.182 244.197 158.136 244.281 158.105 244.335C158.045 244.44 157.991 244.518 157.966 244.554C157.914 244.628 157.873 244.678 157.867 244.686C157.855 244.7 157.851 244.705 157.858 244.696L155.586 242.738L153.313 240.779C153.281 240.817 153.244 240.861 153.207 240.907C153.175 240.946 153.116 241.02 153.051 241.112C153.02 241.156 152.962 241.241 152.899 241.352C152.866 241.409 152.819 241.496 152.769 241.606C152.743 241.662 152.713 241.734 152.682 241.818C152.651 241.901 152.615 242.012 152.582 242.146C152.551 242.277 152.515 242.464 152.503 242.692C152.491 242.915 152.498 243.24 152.597 243.616C152.7 244.007 152.906 244.461 153.281 244.873C153.464 245.074 153.671 245.246 153.893 245.387C154.113 245.526 154.334 245.626 154.543 245.697C154.954 245.835 155.317 245.858 155.571 245.852C155.827 245.846 156.038 245.808 156.183 245.774C156.332 245.74 156.455 245.699 156.545 245.665C156.638 245.631 156.715 245.597 156.775 245.569C156.893 245.514 156.985 245.462 157.044 245.426C157.106 245.389 157.157 245.356 157.195 245.33C157.268 245.281 157.325 245.237 157.361 245.21C157.432 245.154 157.489 245.105 157.522 245.076C157.592 245.015 157.655 244.956 157.703 244.909C157.751 244.862 157.812 244.8 157.875 244.732C157.905 244.699 157.955 244.644 158.012 244.574C158.04 244.54 158.085 244.483 158.137 244.412C158.163 244.376 158.197 244.326 158.236 244.265C158.272 244.207 158.327 244.117 158.384 244.002C158.414 243.943 158.449 243.867 158.486 243.777C158.521 243.689 158.565 243.568 158.603 243.422C158.641 243.28 158.684 243.074 158.698 242.822C158.712 242.572 158.701 242.213 158.58 241.804C158.453 241.374 158.211 240.914 157.81 240.518C157.412 240.126 156.964 239.901 156.571 239.782C156.194 239.668 155.864 239.649 155.637 239.654C155.406 239.659 155.215 239.69 155.082 239.718C154.945 239.747 154.831 239.781 154.746 239.809C154.66 239.838 154.587 239.867 154.529 239.891C154.417 239.939 154.328 239.984 154.271 240.015C154.157 240.077 154.07 240.133 154.025 240.163C153.93 240.225 153.855 240.283 153.815 240.313C153.768 240.35 153.724 240.385 153.685 240.417L155.586 242.738ZM192.586 222.662L195.505 223.352C198.822 209.319 196.53 199.692 190.845 195.587C187.935 193.485 184.43 193.124 181.252 194.342C178.125 195.54 175.504 198.173 173.865 201.751L176.592 203.001L179.319 204.251C180.429 201.828 181.995 200.482 183.398 199.945C184.751 199.427 186.119 199.575 187.333 200.451C189.895 202.301 192.85 208.504 189.666 221.972L192.586 222.662ZM155.586 242.738L157.858 244.696C161.378 240.613 163.778 235.578 165.018 229.836L162.086 229.203L159.154 228.569C158.099 233.448 156.104 237.541 153.313 240.779L155.586 242.738ZM112.592 146.001L114.713 143.88L107.213 136.38L105.092 138.501L102.97 140.622L110.47 148.122L112.592 146.001ZM105.092 138.501L103.428 136.005L95.9277 141.005L97.5918 143.501L99.2559 145.997L106.756 140.997L105.092 138.501ZM137.586 109.835L136.549 112.65L146.049 116.15L147.086 113.335L148.123 110.52L138.623 107.02L137.586 109.835ZM3.07999 108.496L3.84347 111.397L13.3435 108.897L12.58 105.996L11.8165 103.094L2.31651 105.594L3.07999 108.496ZM12.58 105.996L9.77815 104.923C6.33175 113.929 4.43011 120.645 6.12302 131.305L9.08589 130.835L12.0488 130.364C10.5923 121.193 12.1055 115.629 15.3818 107.068L12.58 105.996ZM9.08589 130.835L10.8905 133.231C12.9655 131.669 14.6774 130.08 16.0682 128.774C17.5462 127.386 18.4807 126.502 19.2476 125.989L17.58 123.496L15.9124 121.002C14.6271 121.861 13.2494 123.19 11.9607 124.4C10.5848 125.693 9.07572 127.087 7.28133 128.438L9.08589 130.835ZM17.58 123.496L14.9905 125.01C17.9088 129.999 19.8705 134.432 23.2894 143.097L26.08 141.996L28.8706 140.894C25.4246 132.161 23.3277 127.379 20.1695 121.981L17.58 123.496ZM26.08 141.996L27.8484 144.419C29.7325 143.044 30.9046 142.083 31.8612 141.16C32.7871 140.267 33.4995 139.412 34.3202 138.491L32.08 136.496L29.8398 134.5C28.8622 135.598 28.4048 136.158 27.6955 136.842C27.0168 137.497 26.0881 138.276 24.3116 139.572L26.08 141.996ZM32.08 136.496L31.4479 139.428C33.2322 139.813 34.1624 140.109 35.0403 140.535C35.9856 140.993 36.9786 141.65 38.8717 142.962L40.58 140.496L42.2883 138.029C40.4692 136.769 39.0936 135.832 37.6576 135.136C36.1542 134.407 34.6906 133.989 32.7121 133.563L32.08 136.496ZM107.086 52.3349L108.7 49.806C108.703 49.8079 108.641 49.7666 108.48 49.641C108.33 49.5247 108.168 49.3944 107.966 49.2331C107.778 49.0829 107.558 48.908 107.345 48.7477C107.149 48.6014 106.868 48.3975 106.57 48.2278L105.086 50.8349L103.602 53.442C103.559 53.4177 103.594 53.4349 103.745 53.5483C103.878 53.6477 104.034 53.7711 104.221 53.9206C104.394 54.0588 104.606 54.2296 104.798 54.3784C104.977 54.518 105.224 54.7059 105.472 54.8639L107.086 52.3349ZM105.086 50.8349L107.523 52.5849C118.038 37.9422 128.231 28.384 135.18 24.0458L133.592 21.501L132.003 18.9562C124.166 23.8485 113.437 34.064 102.649 49.085L105.086 50.8349ZM147.086 113.335L149.92 112.35C145.749 100.353 140.772 89.3078 135.175 79.7422L132.586 81.2573L129.997 82.7724C135.367 91.9503 140.189 102.631 144.252 114.32L147.086 113.335ZM113.116 56.8349L115.067 54.5559C112.994 52.7809 110.87 51.1907 108.7 49.806L107.086 52.3349L105.472 54.8639C107.384 56.0838 109.284 57.5031 111.165 59.1139L113.116 56.8349ZM134.772 26.001L131.858 26.714C137.776 50.8993 133.985 64.5453 129.689 80.4762L132.586 81.2573L135.482 82.0384C139.853 65.8297 143.972 50.9778 137.686 25.288L134.772 26.001ZM113.116 56.8349L115.571 58.5592L137.227 27.7252L134.772 26.001L132.317 24.2767L110.661 55.1107L113.116 56.8349ZM133.592 21.501L130.702 22.308C130.75 22.477 130.779 22.5789 130.797 22.6424C130.802 22.6602 130.822 22.7264 130.846 22.798C130.853 22.8196 130.868 22.8623 130.888 22.9151C130.899 22.9422 130.915 22.9828 130.936 23.0314C130.955 23.0755 130.991 23.156 131.043 23.2533C131.07 23.3034 131.109 23.3728 131.16 23.4529C131.209 23.5292 131.289 23.6461 131.4 23.7779C131.503 23.8994 131.699 24.1117 131.995 24.3142C132.291 24.5163 132.826 24.8025 133.556 24.8348C133.927 24.8512 134.299 24.7988 134.655 24.6778C135.006 24.5584 135.294 24.3879 135.522 24.2123C135.746 24.0395 135.912 23.8604 136.032 23.7109C136.152 23.5612 136.239 23.4223 136.301 23.3124C136.42 23.1013 136.488 22.9203 136.522 22.8249C136.557 22.722 136.58 22.6392 136.59 22.602C136.599 22.5676 136.607 22.532 136.603 22.5477C136.603 22.5499 136.6 22.5626 136.596 22.5788C136.591 22.5952 136.584 22.623 136.575 22.6572C136.56 22.709 136.517 22.8587 136.437 23.041C136.395 23.1366 136.327 23.2785 136.225 23.4401C136.126 23.5964 135.958 23.831 135.697 24.066C135.428 24.3079 135.024 24.5833 134.475 24.7323C134.272 24.78 133.851 24.8329 133.635 24.8368C133.433 24.8263 133.041 24.7666 132.854 24.7187C132.393 24.5853 132.057 24.3687 131.844 24.2032C131.63 24.0362 131.478 23.8711 131.383 23.7571C131.285 23.639 131.212 23.5332 131.163 23.4564C131.113 23.3776 131.073 23.3082 131.045 23.2551C130.99 23.1521 130.951 23.0661 130.93 23.0153C130.887 22.9154 130.859 22.835 130.849 22.804C130.836 22.7651 130.826 22.7337 130.821 22.7167C130.81 22.6831 130.803 22.657 130.801 22.6498C130.795 22.6278 130.791 22.6108 130.799 22.6417C130.808 22.6772 130.831 22.7649 130.874 22.9285L133.775 22.1616L136.675 21.3947C136.631 21.2291 136.612 21.154 136.6 21.1094C136.597 21.1003 136.588 21.0639 136.579 21.0326C136.576 21.0231 136.569 20.9954 136.558 20.9607C136.553 20.943 136.543 20.9112 136.529 20.8719C136.519 20.8405 136.491 20.7599 136.448 20.6597C136.426 20.6088 136.388 20.5227 136.333 20.4197C136.304 20.3666 136.265 20.2972 136.214 20.2183C136.165 20.1415 136.092 20.0356 135.994 19.9176C135.899 19.8036 135.748 19.6384 135.533 19.4714C135.321 19.3059 134.984 19.0893 134.524 18.9559C134.336 18.908 133.945 18.8483 133.743 18.8378C133.527 18.8417 133.105 18.8946 132.902 18.9423C132.354 19.0913 131.949 19.3667 131.681 19.6086C131.42 19.8436 131.252 20.0782 131.153 20.2346C131.051 20.3961 130.983 20.5381 130.941 20.6336C130.861 20.816 130.818 20.9658 130.803 21.0176C130.793 21.0519 130.786 21.0797 130.782 21.096C130.778 21.1122 130.775 21.125 130.774 21.1272C130.77 21.143 130.779 21.1074 130.788 21.073C130.798 21.0359 130.82 20.9532 130.856 20.8503C130.889 20.7549 130.957 20.574 131.076 20.3629C131.138 20.2531 131.226 20.1142 131.345 19.9644C131.465 19.815 131.631 19.6359 131.855 19.4631C132.083 19.2875 132.371 19.117 132.722 18.9977C133.078 18.8766 133.451 18.8243 133.821 18.8406C134.551 18.8729 135.086 19.1591 135.382 19.3611C135.678 19.5637 135.874 19.776 135.977 19.8974C136.088 20.0291 136.168 20.1459 136.216 20.2221C136.267 20.3022 136.306 20.3714 136.333 20.4214C136.385 20.5185 136.421 20.5986 136.44 20.6422C136.461 20.6904 136.477 20.7304 136.487 20.7568C136.507 20.8083 136.521 20.8491 136.527 20.8681C136.548 20.9295 136.561 20.9747 136.554 20.9504C136.548 20.9297 136.528 20.8625 136.481 20.694L133.592 21.501ZM133.775 22.1616L130.874 22.9285C131.102 23.7899 131.666 25.928 131.858 26.714L134.772 26.001L137.686 25.288C137.477 24.4336 136.895 22.2267 136.675 21.3947L133.775 22.1616ZM133.775 22.1616L135.216 24.7929L146.172 18.7929L144.731 16.1616L143.29 13.5303L132.334 19.5303L133.775 22.1616ZM133.592 21.501C136.554 21.9787 136.554 21.9787 136.554 21.9787C136.554 21.9786 136.554 21.9786 136.554 21.9786C136.554 21.9785 136.554 21.9784 136.554 21.9782C136.554 21.978 136.554 21.9775 136.554 21.9769C136.554 21.9757 136.554 21.9739 136.555 21.9715C136.555 21.9667 136.557 21.9596 136.558 21.9502C136.561 21.9313 136.566 21.9033 136.572 21.8665C136.583 21.793 136.601 21.6845 136.623 21.5449C136.669 21.2658 136.734 20.862 136.814 20.3637C136.975 19.367 137.197 17.992 137.441 16.4787L134.479 16.001L131.517 15.5233C131.273 17.0366 131.051 18.4116 130.891 19.4083C130.81 19.9066 130.745 20.3104 130.7 20.5895C130.678 20.7291 130.66 20.8376 130.648 20.9111C130.642 20.9479 130.638 20.9759 130.635 20.9948C130.633 21.0042 130.632 21.0113 130.631 21.0161C130.631 21.0185 130.631 21.0203 130.63 21.0215C130.63 21.0221 130.63 21.0225 130.63 21.0228C130.63 21.023 130.63 21.0231 130.63 21.0232C130.63 21.0232 130.63 21.0232 130.63 21.0233C130.63 21.0233 130.63 21.0233 133.592 21.501ZM134.479 16.001L137.441 16.4787C137.685 14.9654 138.088 12.4654 138.43 10.3437C138.601 9.28289 138.757 8.31663 138.87 7.61558C138.927 7.26506 138.973 6.98083 139.004 6.78424C139.02 6.68594 139.032 6.60956 139.041 6.55774C139.045 6.53183 139.048 6.51208 139.05 6.49879C139.051 6.49214 139.052 6.48712 139.053 6.48376C139.053 6.48206 139.053 6.48082 139.053 6.47996C139.053 6.47957 139.053 6.47919 139.053 6.47901C139.053 6.4789 139.053 6.47882 139.054 6.47877C139.054 6.47872 139.054 6.47869 136.092 6.00099C133.13 5.5233 133.13 5.52332 133.13 5.52338C133.13 5.52343 133.13 5.52351 133.13 5.52362C133.13 5.52379 133.13 5.52419 133.13 5.52457C133.13 5.52544 133.13 5.52666 133.129 5.52836C133.129 5.53175 133.128 5.53673 133.127 5.5434C133.125 5.55668 133.122 5.57645 133.117 5.60235C133.109 5.65416 133.097 5.73056 133.081 5.82885C133.049 6.02544 133.003 6.30966 132.947 6.66019C132.834 7.36124 132.678 8.3275 132.507 9.38834C132.164 11.51 131.761 14.01 131.517 15.5233L134.479 16.001ZM133.592 21.501L136.491 22.2729L140.485 7.27292L137.586 6.50099L134.687 5.72907L130.693 20.7291L133.592 21.501ZM137.586 6.50099L140.566 6.15409C140.502 5.60563 140.223 4.19995 138.923 3.29836C138.15 2.76233 137.214 2.56042 136.287 2.7092C135.45 2.84354 134.775 3.235 134.28 3.61007L136.092 6.00099L137.904 8.39192C137.937 8.36699 137.705 8.55844 137.238 8.63341C136.681 8.72282 136.042 8.60215 135.503 8.22863C135.039 7.9068 134.828 7.52321 134.745 7.34022C134.656 7.14538 134.621 6.97949 134.606 6.84789L137.586 6.50099ZM133.775 22.1616L134.872 24.9537L146.322 20.4537L145.225 17.6616L144.128 14.8695L132.677 19.3695L133.775 22.1616ZM145.225 17.6616L147.712 19.3392C147.901 19.0586 148.1 18.7046 148.257 18.3007C148.402 17.9266 148.588 17.3131 148.553 16.5794C148.513 15.7615 148.178 14.7225 147.218 13.9675C146.356 13.289 145.387 13.1616 144.731 13.1616V16.1616V19.1616C144.677 19.1616 144.114 19.1592 143.509 18.6838C142.807 18.1319 142.584 17.3742 142.56 16.8688C142.539 16.4477 142.644 16.1779 142.662 16.1318C142.692 16.0561 142.717 16.0146 142.738 15.984L145.225 17.6616ZM134.479 16.001L131.517 15.5233L130.63 21.0233L133.592 21.501L136.554 21.9787L137.441 16.4787L134.479 16.001ZM136.092 6.00099L133.13 5.5233L131.517 15.5233L134.479 16.001L137.441 16.4787L139.054 6.47869L136.092 6.00099ZM105.086 50.8349L106.57 48.2278C92.0749 39.9756 70.785 40.3977 54.1519 45.8088L55.08 48.6616L56.008 51.5144C71.7044 46.4081 91.0903 46.3192 103.602 53.442L105.086 50.8349ZM55.08 48.6616L54.1519 45.8088C50.8319 46.8888 47.6623 48.1775 44.7332 49.6572L46.0859 52.3349L47.4386 55.0127C50.0682 53.6842 52.9509 52.509 56.008 51.5144L55.08 48.6616ZM55.08 48.6616L57.8446 47.4967C55.7034 42.4152 51.7133 34.3762 46.8937 27.3555C44.485 23.8468 41.8073 20.5011 38.9826 17.8967C36.2052 15.3359 33.0044 13.2292 29.542 12.6965L29.0859 15.6616L28.6297 18.6267C30.3673 18.894 32.495 20.0762 34.9155 22.3079C37.2885 24.4958 39.6781 27.446 41.9471 30.7512C46.4829 37.3584 50.2898 45.0193 52.3153 49.8265L55.08 48.6616ZM46.0859 52.3349L44.7332 49.6572C37.725 53.1976 28.4923 61.826 21.1695 71.7096L23.58 73.4955L25.9905 75.2815C33.0368 65.771 41.6024 57.961 47.4386 55.0127L46.0859 52.3349ZM23.58 73.4955L21.2683 71.5834C15.1489 78.9814 9.66269 87.2215 5.82808 93.9661C3.91338 97.3337 2.37708 100.387 1.37672 102.816C0.879958 104.023 0.48267 105.153 0.247911 106.135C0.130696 106.625 0.0365181 107.149 0.00864339 107.669C-0.0168707 108.145 -0.00329351 108.87 0.296986 109.616L3.07999 108.496L5.86299 107.375C6.03121 107.793 5.99569 108.071 6.00005 107.99C6.00204 107.953 6.01668 107.809 6.08326 107.531C6.21608 106.976 6.48624 106.166 6.92479 105.101C7.79506 102.987 9.20089 100.173 11.044 96.9316C14.725 90.4573 20.017 82.5097 25.8916 75.4077L23.58 73.4955ZM27.8833 19.4779L25.085 18.3963C22.2327 25.7756 18.8055 36.3789 17.252 46.802C15.7298 57.0144 15.8591 67.9652 21.1521 75.2577L23.58 73.4955L26.0079 71.7333C22.2186 66.5126 21.6907 57.7213 23.1864 47.6865C24.6507 37.8625 27.9163 27.7136 30.6815 20.5595L27.8833 19.4779ZM46.0859 52.3349L48.9931 51.5945C47.8728 47.1957 44.389 40.4711 40.7567 34.2008C37.0574 27.8148 32.9616 21.4954 30.3397 17.7557L27.8833 19.4779L25.4268 21.2001C27.9463 24.7937 31.9494 30.967 35.5649 37.2084C39.2474 43.5654 42.2942 49.6026 43.1787 53.0754L46.0859 52.3349ZM29.0859 15.6616L32.0451 16.1548L34.0451 4.1548L31.0859 3.66161L28.1267 3.16841L26.1267 15.1684L29.0859 15.6616ZM29.0859 15.6616L26.3293 14.4778C26.2887 14.5724 26.2504 14.6662 26.2142 14.7586L29.0077 15.8523L31.8012 16.9461C31.8159 16.9086 31.8296 16.8752 31.8424 16.8454L29.0859 15.6616ZM29.0077 15.8523L32.0044 15.9944L32.5825 3.80372L29.5859 3.66161L26.5893 3.51949L26.0111 15.7102L29.0077 15.8523ZM29.5859 3.66161L32.082 5.3257C32.0616 5.35641 32.0277 5.40371 31.9565 5.47052C31.9146 5.50974 31.6642 5.74596 31.1961 5.89053C30.6027 6.07379 29.7403 6.06553 28.985 5.5256C28.6732 5.30271 28.4858 5.05993 28.3846 4.89986C28.2849 4.74208 28.2463 4.62978 28.2398 4.6103L31.0859 3.66161L33.9319 2.71292C33.738 2.13127 33.3423 1.26499 32.4742 0.644487C31.4523 -0.0860691 30.3024 -0.113075 29.4257 0.157682C28.6742 0.389747 28.1446 0.819724 27.8528 1.09331C27.5315 1.39451 27.2769 1.7168 27.0897 1.99751L29.5859 3.66161ZM29.0077 15.8523L26.2142 14.7586C26.2124 14.7633 26.2135 14.7605 26.2167 14.7525C26.2181 14.7491 26.2296 14.7206 26.2471 14.6813C26.2549 14.6637 26.2751 14.6185 26.3038 14.5612C26.318 14.5329 26.3443 14.4814 26.3802 14.4185C26.3986 14.3862 26.4254 14.3406 26.4597 14.2871C26.4916 14.2374 26.5464 14.1551 26.6218 14.0585C26.6606 14.0089 26.7139 13.9439 26.7812 13.8712C26.8461 13.8008 26.9438 13.7017 27.0731 13.5948C27.1283 13.5502 27.2513 13.4583 27.3193 13.4115C27.4013 13.3587 27.5854 13.2531 27.688 13.2015C27.8123 13.1453 28.0911 13.0429 28.2457 12.9992C28.4299 12.9585 28.8306 12.9107 29.0458 12.9073C29.2845 12.9217 29.7669 13.0105 30.007 13.0862C30.2407 13.1822 30.6678 13.4233 30.8596 13.5647C31.0232 13.7056 31.3002 13.9991 31.415 14.1478C31.506 14.2808 31.6544 14.5381 31.7136 14.6604C31.7595 14.7661 31.8331 14.9651 31.8621 15.0578C31.8845 15.1376 31.92 15.2869 31.9338 15.3563C31.9646 15.5211 31.9761 15.6598 31.9809 15.7554C31.9859 15.8544 31.9852 15.9384 31.9832 16.0014C31.9811 16.0656 31.9773 16.1211 31.9735 16.1651C31.9661 16.2509 31.9563 16.3208 31.9491 16.3667C31.9416 16.4148 31.9341 16.4553 31.9283 16.485C31.9223 16.5155 31.9166 16.5417 31.912 16.5624C31.9029 16.6027 31.8947 16.6354 31.8891 16.6568C31.8833 16.6792 31.8781 16.698 31.8743 16.7117C31.8668 16.7385 31.8604 16.7595 31.8568 16.7716C31.8494 16.7955 31.8438 16.8127 31.8418 16.8188C31.8374 16.8322 31.835 16.8391 31.8347 16.8398C31.8346 16.8402 31.8317 16.8485 31.8258 16.8641C31.8233 16.8707 31.8154 16.8917 31.8038 16.9203C31.7982 16.9343 31.787 16.9616 31.7719 16.9961C31.7642 17.0138 31.7525 17.0399 31.7376 17.0714C31.7243 17.0997 31.6991 17.1518 31.6646 17.2157C31.6469 17.2484 31.6208 17.2953 31.5872 17.3504C31.57 17.3786 31.5485 17.4127 31.5231 17.4509C31.498 17.4887 31.4651 17.5362 31.4248 17.5898C31.3855 17.6421 31.3303 17.712 31.2599 17.7906C31.2306 17.8228 31.1659 17.8907 31.1305 17.9261C31.0891 17.9661 30.9969 18.0499 30.9458 18.0934C30.885 18.1427 30.7479 18.2447 30.6712 18.2967C30.5784 18.3551 30.3675 18.4714 30.2488 18.5274C30.1048 18.5873 29.78 18.6916 29.5993 18.7326C29.3871 18.766 28.93 18.7863 28.6877 18.7686C28.4305 18.728 27.9272 18.5792 27.6852 18.4713C27.4646 18.3492 27.0755 18.0668 26.9073 17.9113C26.7713 17.7663 26.546 17.4752 26.4547 17.3324C26.3845 17.209 26.2708 16.9737 26.2258 16.8631C26.1915 16.7692 26.1365 16.5929 26.1149 16.511C26.0985 16.441 26.0723 16.3099 26.0621 16.2489C26.0396 16.104 26.0316 15.9824 26.0285 15.8975C26.0253 15.8099 26.0265 15.7353 26.0285 15.6789C26.0306 15.6214 26.0341 15.5716 26.0375 15.5318C26.0442 15.4542 26.0527 15.3908 26.0589 15.3486C26.0712 15.2661 26.0844 15.2014 26.0914 15.1684C26.0993 15.131 26.1065 15.1007 26.1113 15.0808C26.1208 15.042 26.129 15.0121 26.1329 14.998C26.1409 14.9689 26.147 14.9491 26.1475 14.9474C26.1488 14.9429 26.1488 14.9431 26.1467 14.9499L29.0077 15.8523L31.8688 16.7548C31.8752 16.7346 31.882 16.7127 31.8887 16.6904C31.8947 16.6709 31.9046 16.6377 31.9154 16.5988C31.9207 16.5798 31.9299 16.5459 31.9401 16.5039C31.9453 16.4826 31.9528 16.4508 31.961 16.4123C31.9682 16.3782 31.9816 16.3125 31.994 16.2293C32.0003 16.1867 32.0088 16.1229 32.0155 16.045C32.0189 16.0051 32.0224 15.9552 32.0245 15.8976C32.0266 15.8411 32.0277 15.7664 32.0245 15.6786C32.0214 15.5937 32.0134 15.472 31.9909 15.3271C31.9808 15.266 31.9546 15.1349 31.9381 15.0649C31.9165 14.9829 31.8615 14.8066 31.8272 14.7126C31.7822 14.602 31.6685 14.3667 31.5983 14.2433C31.5069 14.1004 31.2816 13.8093 31.1456 13.6644C30.9774 13.5089 30.5883 13.2264 30.3677 13.1043C30.1256 12.9964 29.6223 12.8476 29.3651 12.807C29.1228 12.7894 28.6657 12.8096 28.4534 12.843C28.2727 12.884 27.9479 12.9884 27.8039 13.0482C27.6852 13.1043 27.4743 13.2205 27.3815 13.279C27.3047 13.331 27.1676 13.433 27.1068 13.4824C27.0557 13.5259 26.9634 13.6097 26.922 13.6497C26.8865 13.6851 26.8219 13.753 26.7925 13.7853C26.722 13.8639 26.6668 13.9339 26.6274 13.9863C26.5871 14.04 26.5542 14.0876 26.529 14.1254C26.5035 14.1638 26.482 14.198 26.4647 14.2263C26.4309 14.2817 26.4046 14.3288 26.3868 14.3618C26.3519 14.4264 26.3264 14.4793 26.3125 14.5086C26.2972 14.541 26.2851 14.5682 26.2768 14.5871C26.2606 14.624 26.2482 14.6544 26.2411 14.6718C26.2267 14.7074 26.2154 14.7373 26.2091 14.754C26.1956 14.7898 26.1835 14.8236 26.1744 14.8496C26.1651 14.8761 26.1537 14.909 26.1422 14.944C26.1367 14.9608 26.128 14.9876 26.1183 15.0195C26.1134 15.0355 26.106 15.06 26.0977 15.0898C26.0934 15.1051 26.0878 15.1252 26.0817 15.1489C26.0758 15.1715 26.0673 15.2053 26.058 15.2466C26.0533 15.2677 26.0475 15.2944 26.0414 15.3253C26.0355 15.3555 26.0279 15.3962 26.0204 15.4447C26.0132 15.4909 26.0034 15.5612 25.9959 15.6472C25.9921 15.6913 25.9882 15.7469 25.9862 15.8112C25.9842 15.8743 25.9835 15.9584 25.9885 16.0575C25.9933 16.1532 26.0048 16.292 26.0356 16.4569C26.0494 16.5262 26.085 16.6756 26.1073 16.7554C26.1363 16.8482 26.21 17.0472 26.2558 17.1529C26.3151 17.2752 26.4635 17.5325 26.5545 17.6656C26.6693 17.8143 26.9463 18.1078 27.1099 18.2487C27.3017 18.3901 27.7289 18.6312 27.9626 18.7272C28.2027 18.803 28.6851 18.8917 28.9238 18.9061C29.139 18.9028 29.5398 18.8549 29.7239 18.8142C29.8786 18.7705 30.1574 18.6681 30.2818 18.6119C30.3844 18.5603 30.5685 18.4547 30.6505 18.4018C30.7186 18.355 30.8416 18.2631 30.8968 18.2185C31.0261 18.1116 31.1239 18.0124 31.1889 17.942C31.2562 17.8691 31.3096 17.8041 31.3484 17.7544C31.424 17.6577 31.479 17.5751 31.511 17.5251C31.5455 17.4714 31.5725 17.4255 31.5911 17.3928C31.6274 17.3291 31.6542 17.2768 31.669 17.2473C31.6988 17.1878 31.7204 17.1395 31.73 17.118C31.751 17.0708 31.7673 17.0308 31.775 17.0119C31.7846 16.9884 31.7935 16.9658 31.8012 16.9461L29.0077 15.8523ZM29.0077 15.8523L26.1467 14.9499C25.7615 16.1711 25.4207 17.5279 25.085 18.3963L27.8833 19.4779L30.6815 20.5595C31.0932 19.4945 31.6607 17.4145 31.8688 16.7548L29.0077 15.8523ZM29.0077 15.8523L31.0819 13.6849L21.8758 4.87523L19.8017 7.0427L17.7276 9.21017L26.9336 18.0198L29.0077 15.8523ZM29.0077 15.8523L30.8125 13.4559L21.1065 6.14627L19.3017 8.5427L17.4969 10.9391L27.203 18.2488L29.0077 15.8523ZM19.3017 8.5427L21.7017 6.7427C21.6848 6.72013 21.6664 6.69371 21.6501 6.66788C21.6332 6.64116 21.6262 6.6273 21.6272 6.62918C21.6281 6.63096 21.633 6.64093 21.6406 6.65895C21.648 6.6766 21.6603 6.70766 21.6743 6.75125C21.6973 6.82293 21.7523 7.01115 21.7622 7.28302C21.7721 7.55499 21.7406 8.04009 21.4589 8.57125C21.1514 9.15116 20.6693 9.55119 20.1718 9.76691C19.7292 9.95885 19.3681 9.96745 19.2284 9.9641C19.0779 9.96049 19.0146 9.93826 19.0741 9.95313L19.8017 7.0427L20.5293 4.13227C19.9907 3.99762 18.8973 3.77974 17.7847 4.26223C17.1263 4.54775 16.534 5.05142 16.1582 5.76024C15.8081 6.4203 15.75 7.05957 15.7662 7.50238C15.796 8.31596 16.0947 8.98055 16.2606 9.31246C16.4596 9.7104 16.6941 10.0659 16.9017 10.3427L19.3017 8.5427ZM29.474 248.996L28.2955 251.754C28.301 251.757 28.3113 251.761 28.3238 251.766C28.33 251.769 28.3404 251.773 28.3533 251.778C28.3626 251.782 28.3902 251.793 28.4256 251.807C28.442 251.813 28.4794 251.827 28.5274 251.843C28.5516 251.851 28.6103 251.869 28.645 251.879C28.6988 251.894 28.8469 251.93 28.9416 251.949C29.145 251.979 29.9913 251.954 30.6093 251.777C32.0754 250.502 32.2076 247.749 31.7266 247.01C31.5512 246.828 31.2729 246.593 31.1823 246.528C31.1307 246.493 31.0449 246.438 31.0111 246.418C30.9485 246.381 30.8982 246.354 30.881 246.345C30.8574 246.333 30.8383 246.323 30.8271 246.317C30.8047 246.306 30.7868 246.298 30.7787 246.294C30.7506 246.28 30.7262 246.269 30.7236 246.268C30.7147 246.264 30.706 246.26 30.699 246.257C30.672 246.244 30.6323 246.226 30.5894 246.207C30.5011 246.168 30.3752 246.111 30.2531 246.056C30.1289 246.001 30.0086 245.947 29.9258 245.91C29.8819 245.89 29.8578 245.879 29.8496 245.875C29.8481 245.874 29.852 245.876 29.859 245.879C29.8625 245.881 29.87 245.885 29.8798 245.889C29.8866 245.893 29.9098 245.904 29.9397 245.919C29.9534 245.926 29.9856 245.943 30.0261 245.965C30.0463 245.976 30.0814 245.996 30.1244 246.022C30.155 246.04 30.2494 246.098 30.3628 246.182C30.4242 246.229 30.5776 246.357 30.6673 246.441C30.8187 246.6 31.2105 247.159 31.3997 247.583C31.574 248.589 30.8338 250.563 29.9522 251.255C29.4564 251.457 28.6864 251.588 28.4395 251.587C28.3056 251.578 28.0898 251.551 28.0078 251.536C27.9526 251.525 27.8582 251.503 27.8189 251.493C27.7389 251.473 27.6768 251.453 27.6481 251.444C27.5872 251.424 27.5404 251.406 27.5245 251.4C27.5028 251.392 27.4855 251.386 27.4756 251.382C27.4559 251.374 27.441 251.368 27.4354 251.365L28.58 248.592L29.7246 245.819C29.716 245.816 29.6986 245.809 29.6771 245.8C29.6663 245.796 29.6482 245.789 29.6258 245.78C29.6092 245.774 29.5619 245.757 29.5007 245.737C29.4718 245.727 29.4096 245.708 29.3294 245.687C29.29 245.677 29.1956 245.655 29.1404 245.644C29.0583 245.629 28.8424 245.602 28.7085 245.593C28.4616 245.592 27.6916 245.723 27.1958 245.925C26.3142 246.617 25.574 248.591 25.7482 249.598C25.9375 250.022 26.3293 250.58 26.4807 250.739C26.5704 250.823 26.7238 250.952 26.7853 250.999C26.8988 251.083 26.9932 251.14 27.024 251.159C27.0671 251.185 27.1024 251.205 27.1228 251.216C27.1637 251.238 27.1964 251.255 27.2108 251.263C27.2608 251.288 27.3036 251.308 27.3054 251.309C27.319 251.315 27.3313 251.321 27.3399 251.325C27.3723 251.34 27.4164 251.36 27.4593 251.379C27.5499 251.42 27.6768 251.477 27.8 251.532C27.9251 251.588 28.0466 251.643 28.1321 251.681C28.176 251.701 28.2048 251.714 28.2187 251.72C28.2403 251.73 28.2122 251.717 28.1783 251.701C28.1708 251.697 28.1535 251.689 28.1315 251.678C28.1205 251.672 28.1016 251.663 28.0782 251.65C28.0611 251.641 28.011 251.615 27.9485 251.578C27.9147 251.557 27.8289 251.503 27.7773 251.468C27.6868 251.403 27.4085 251.168 27.233 250.986C26.7521 250.247 26.8843 247.494 28.3504 246.219C28.9683 246.042 29.8147 246.017 30.018 246.047C30.1127 246.065 30.2608 246.101 30.3145 246.116C30.3492 246.127 30.4079 246.145 30.432 246.153C30.4799 246.169 30.5171 246.183 30.5333 246.189C30.5684 246.202 30.5955 246.213 30.6042 246.217C30.6164 246.222 30.626 246.226 30.6314 246.228C30.6421 246.232 30.6499 246.236 30.6524 246.237L29.474 248.996ZM52.58 246.496L55.5186 247.099C56.4325 242.65 57.5119 240.479 60.0555 238.253L58.08 235.996L56.1045 233.738C52.2481 237.112 50.7156 240.662 49.6413 245.892L52.58 246.496ZM58.08 235.996L60.0555 238.253C62.0588 236.5 63.8253 234.88 65.163 233.331C66.4897 231.795 67.6236 230.074 68.0217 228.084L65.08 227.496L62.1382 226.907C62.0363 227.417 61.6703 228.196 60.622 229.41C59.5847 230.611 58.1012 231.991 56.1045 233.738L58.08 235.996ZM65.08 227.496L68.0217 228.084C68.251 226.938 69.1014 220.232 70.0173 212.697L67.0392 212.335L64.0612 211.973C63.1213 219.706 62.3085 226.056 62.1382 226.907L65.08 227.496ZM67.0392 212.335L70.0173 212.697C70.9479 205.04 71.9766 196.26 72.5627 190.817L69.58 190.496L66.5972 190.174C66.0154 195.577 64.9906 204.325 64.0612 211.973L67.0392 212.335ZM69.58 190.496L66.6001 190.149L64.0593 211.988L67.0392 212.335L70.0191 212.681L72.5599 190.842L69.58 190.496ZM49.5859 189.662L46.8275 190.841C48.057 193.716 50.7067 198.825 53.9903 203.618C55.6359 206.02 57.4833 208.405 59.437 210.409C61.3588 212.381 63.5511 214.159 65.9133 215.115L67.0392 212.335L68.1652 209.554C66.9111 209.046 65.4018 207.932 63.7335 206.221C62.0969 204.542 60.4654 202.453 58.94 200.227C55.8816 195.763 53.421 191 52.3443 188.482L49.5859 189.662ZM39.08 250.996L39.1506 253.995C41.3715 253.942 44.397 253.183 47.0571 252.286C49.7257 251.387 52.5442 250.175 54.2932 248.958L52.58 246.496L50.8668 244.033C49.8224 244.759 47.6464 245.756 45.1411 246.6C42.6273 247.447 40.2994 247.966 39.0094 247.996L39.08 250.996ZM39.08 250.996L42.0085 251.646C43.0626 246.903 43.4754 244.152 45.1906 241.15L42.5859 239.662L39.9812 238.173C37.6964 242.172 37.0973 246.088 36.1514 250.345L39.08 250.996ZM60.0859 253.496V250.496C59.2433 250.496 58.1396 249.858 56.9947 248.416C56.4771 247.764 56.0662 247.086 55.7938 246.551C55.6574 246.283 55.5716 246.082 55.5283 245.966C55.5061 245.906 55.5061 245.899 55.5156 245.935C55.5206 245.954 55.5334 246.004 55.5461 246.079C55.5571 246.143 55.58 246.293 55.58 246.496H52.58H49.58C49.58 246.937 49.6723 247.307 49.7141 247.465C49.7698 247.677 49.8388 247.881 49.9076 248.065C50.0462 248.436 50.2304 248.848 50.4462 249.272C50.878 250.12 51.4998 251.145 52.2961 252.148C53.7792 254.015 56.4285 256.496 60.0859 256.496V253.496ZM60.0859 253.496L62.8433 254.677C63.671 252.746 64.2205 250.863 64.7045 249.282C65.2075 247.639 65.6398 246.322 66.2501 245.143L63.5859 243.764L60.9217 242.385C60.032 244.104 59.4643 245.902 58.9673 247.526C58.4513 249.211 58.0008 250.745 57.3285 252.314L60.0859 253.496ZM89.58 248.996L86.8967 247.654C86.6805 248.086 86.2179 248.566 85.2145 249.014C84.1944 249.469 82.8329 249.79 81.1953 249.999C79.5767 250.205 77.8438 250.284 76.1288 250.333C74.4848 250.38 72.7355 250.4 71.3543 250.504L71.58 253.496L71.8057 256.487C73.0004 256.397 74.4766 256.382 76.3 256.33C78.0523 256.28 80.0287 256.196 81.9536 255.951C83.8596 255.708 85.8758 255.289 87.6601 254.493C89.461 253.689 91.2294 252.405 92.2633 250.337L89.58 248.996ZM71.58 253.496L71.4969 250.497C65.5346 250.662 64.2671 250.496 60.0859 250.496V253.496V256.496C63.9047 256.496 65.6372 256.661 71.6631 256.494L71.58 253.496ZM71.58 253.496L74.3374 254.677C75.2925 252.449 75.4436 250.565 75.5707 249.162C75.6973 247.765 75.7978 246.946 76.2692 246.003L73.5859 244.662L70.9026 243.32C69.874 245.377 69.7216 247.225 69.5952 248.62C69.4693 250.009 69.3675 251.042 68.8225 252.314L71.58 253.496ZM94.0859 253.162L91.2693 254.194C92.4388 257.384 95.2583 258.484 97.3549 258.872C99.2998 259.232 101.699 259.131 102.477 259.16L102.586 256.162L102.695 253.164C101.047 253.104 99.8291 253.228 98.4464 252.972C97.2154 252.744 96.9977 252.388 96.9025 252.129L94.0859 253.162ZM102.586 256.162L105.561 256.546C106.109 252.307 106.786 249.113 108.192 246.647L105.586 245.162L102.98 243.676C100.941 247.252 100.165 251.487 99.6107 255.777L102.586 256.162ZM115.086 255.662L115.149 258.661C131.658 258.311 148.354 252.54 157.487 245.059L155.586 242.738L153.685 240.417C145.818 246.862 130.514 252.334 115.022 252.662L115.086 255.662ZM102.586 256.162L102.477 259.16C104.018 259.216 106.496 259.092 108.827 258.963C111.259 258.829 113.605 258.685 115.133 258.661L115.086 255.662L115.039 252.662C113.356 252.688 110.826 252.844 108.497 252.973C106.068 253.106 103.901 253.208 102.695 253.164L102.586 256.162ZM115.086 255.662L115.133 258.661C115.153 258.661 115.169 258.661 115.181 258.661C115.193 258.66 115.201 258.66 115.204 258.66C115.206 258.66 115.206 258.66 115.203 258.66C115.202 258.66 115.2 258.66 115.196 258.66C115.194 258.66 115.191 258.66 115.188 258.66C115.184 258.66 115.179 258.66 115.173 258.66C115.17 258.66 115.166 258.66 115.161 258.66C115.156 258.66 115.15 258.66 115.143 258.66C115.135 258.66 115.125 258.66 115.111 258.659C115.105 258.659 115.092 258.659 115.085 258.659C115.077 258.658 115.057 258.658 115.046 258.657C115.032 258.657 114.998 258.655 114.978 258.653C114.95 258.651 114.878 258.645 114.834 258.64C114.757 258.63 114.507 258.584 114.338 258.539C113.725 258.283 112.182 255.745 113.06 253.539C113.601 253.11 114.397 252.765 114.571 252.723C114.649 252.708 114.771 252.688 114.815 252.683C114.843 252.679 114.891 252.674 114.911 252.673C114.925 252.671 114.951 252.669 114.962 252.668C114.971 252.668 114.986 252.667 114.993 252.666C114.999 252.666 115.01 252.665 115.015 252.665C115.026 252.664 115.036 252.664 115.042 252.664C115.049 252.663 115.054 252.663 115.059 252.663C115.063 252.663 115.067 252.663 115.07 252.662C115.076 252.662 115.08 252.662 115.083 252.662C115.086 252.662 115.089 252.662 115.091 252.662C115.095 252.662 115.097 252.662 115.099 252.661C115.1 252.661 115.101 252.661 115.101 252.661C115.102 252.661 115.101 252.661 115.099 252.661C115.096 252.662 115.09 252.662 115.083 252.662C115.068 252.662 115.049 252.662 115.029 252.663C115.01 252.663 114.991 252.664 114.976 252.664C114.968 252.664 114.963 252.664 114.96 252.664C114.958 252.664 114.958 252.664 114.958 252.664C114.959 252.664 114.96 252.664 114.961 252.664C114.963 252.664 114.966 252.664 114.97 252.664C114.972 252.664 114.975 252.664 114.978 252.664C114.982 252.664 114.987 252.664 114.994 252.664C114.997 252.664 115.002 252.664 115.007 252.664C115.012 252.664 115.019 252.664 115.027 252.664C115.03 252.664 115.038 252.664 115.042 252.664C115.047 252.664 115.057 252.665 115.062 252.665C115.069 252.665 115.084 252.665 115.092 252.666C115.103 252.666 115.127 252.667 115.14 252.668C115.158 252.669 115.202 252.671 115.228 252.673C115.267 252.677 115.374 252.689 115.442 252.698C115.582 252.723 116.164 252.903 116.577 253.119C117.897 254.927 116.95 257.934 116.075 258.46C115.865 258.533 115.56 258.609 115.47 258.625C115.422 258.632 115.342 258.643 115.312 258.646C115.291 258.649 115.255 258.652 115.239 258.653C115.228 258.654 115.207 258.656 115.198 258.657C115.191 258.657 115.177 258.658 115.171 258.658C115.166 258.659 115.157 258.659 115.153 258.659C115.142 258.66 115.134 258.66 115.128 258.661C115.122 258.661 115.117 258.661 115.113 258.661C115.109 258.661 115.106 258.662 115.103 258.662C115.098 258.662 115.093 258.662 115.091 258.662C115.088 258.662 115.085 258.662 115.083 258.662C115.08 258.662 115.078 258.663 115.077 258.663C115.075 258.663 115.074 258.663 115.076 258.663C115.08 258.662 115.088 258.662 115.101 258.662C115.113 258.662 115.129 258.661 115.149 258.661L115.086 255.662L115.022 252.662C115.001 252.663 114.983 252.663 114.968 252.663C114.953 252.664 114.941 252.664 114.93 252.664C114.925 252.664 114.919 252.665 114.913 252.665C114.909 252.665 114.905 252.665 114.9 252.665C114.898 252.665 114.895 252.665 114.891 252.665C114.887 252.666 114.883 252.666 114.877 252.666C114.874 252.666 114.87 252.666 114.866 252.666C114.862 252.667 114.857 252.667 114.85 252.667C114.844 252.667 114.836 252.668 114.826 252.668C114.821 252.669 114.812 252.669 114.807 252.669C114.801 252.67 114.787 252.671 114.78 252.671C114.771 252.672 114.75 252.673 114.739 252.674C114.723 252.676 114.687 252.679 114.666 252.681C114.635 252.685 114.556 252.695 114.507 252.703C114.417 252.719 114.113 252.795 113.903 252.867C113.028 253.394 112.081 256.401 113.4 258.209C113.814 258.424 114.396 258.605 114.536 258.63C114.604 258.639 114.71 258.651 114.75 258.654C114.776 258.656 114.82 258.659 114.838 258.66C114.851 258.661 114.875 258.662 114.886 258.662C114.894 258.662 114.909 258.663 114.916 258.663C114.921 258.663 114.932 258.663 114.936 258.663C114.94 258.663 114.948 258.664 114.951 258.664C114.96 258.664 114.967 258.664 114.972 258.664C114.977 258.664 114.982 258.664 114.986 258.664C114.993 258.664 114.998 258.664 115.002 258.664C115.006 258.664 115.01 258.664 115.013 258.664C115.018 258.664 115.023 258.664 115.026 258.664C115.029 258.664 115.032 258.664 115.035 258.664C115.04 258.664 115.044 258.663 115.049 258.663C115.057 258.663 115.067 258.663 115.076 258.663C115.095 258.663 115.118 258.662 115.14 258.662C115.162 258.661 115.185 258.661 115.204 258.661C115.213 258.66 115.223 258.66 115.231 258.66C115.236 258.66 115.24 258.66 115.245 258.66C115.248 258.66 115.251 258.66 115.254 258.659C115.257 258.659 115.261 258.659 115.266 258.659C115.269 258.659 115.272 258.659 115.276 258.659C115.279 258.659 115.285 258.659 115.291 258.658C115.294 258.658 115.298 258.658 115.302 258.658C115.307 258.658 115.313 258.657 115.319 258.657C115.326 258.657 115.336 258.656 115.347 258.656C115.352 258.655 115.363 258.655 115.369 258.654C115.376 258.654 115.392 258.653 115.4 258.652C115.411 258.651 115.437 258.649 115.451 258.648C115.471 258.646 115.519 258.641 115.547 258.638C115.591 258.632 115.714 258.613 115.792 258.598C115.966 258.556 116.762 258.21 117.303 257.781C118.18 255.576 116.638 253.038 116.024 252.781C115.855 252.737 115.606 252.691 115.528 252.68C115.484 252.676 115.412 252.669 115.384 252.667C115.365 252.666 115.331 252.664 115.316 252.663C115.305 252.663 115.286 252.662 115.277 252.662C115.27 252.662 115.257 252.661 115.251 252.661C115.237 252.661 115.226 252.661 115.219 252.661C115.211 252.66 115.205 252.66 115.2 252.66C115.195 252.66 115.191 252.66 115.188 252.66C115.181 252.66 115.175 252.66 115.171 252.66C115.167 252.66 115.164 252.66 115.161 252.66C115.156 252.66 115.151 252.66 115.148 252.66C115.142 252.66 115.135 252.661 115.13 252.661C115.12 252.661 115.107 252.661 115.093 252.661C115.078 252.661 115.06 252.662 115.039 252.662L115.086 255.662ZM115.086 255.662L118.065 256.013C118.432 252.902 119.195 249.81 120.795 246.451L118.086 245.162L115.377 243.872C113.458 247.904 112.539 251.644 112.107 255.311L115.086 255.662ZM132.586 81.2573L135.175 79.7422C130.603 71.9285 125.597 65.0674 120.248 59.4757L118.08 61.5494L115.912 63.6231C120.871 68.8072 125.607 75.2705 129.997 82.7724L132.586 81.2573ZM118.08 61.5494L120.248 59.4757C118.557 57.7081 116.829 56.0643 115.067 54.5559L113.116 56.8349L111.165 59.1139C112.764 60.4826 114.348 61.9877 115.912 63.6231L118.08 61.5494ZM162.086 229.203L163.402 231.899C171.624 227.886 173.717 219.469 175.489 214.103L172.641 213.162L169.792 212.221C167.757 218.38 166.266 223.825 160.77 226.507L162.086 229.203ZM172.641 213.162L175.489 214.103C176.698 210.444 177.596 207.296 179.198 204.487L176.592 203.001L173.986 201.514C172.004 204.99 170.882 208.921 169.792 212.221L172.641 213.162ZM155.586 242.738L152.855 243.98C154.164 246.859 157.431 248.374 160.486 249.04C163.764 249.754 167.776 249.732 171.903 248.751C180.237 246.769 189.262 240.809 193.89 228.651L191.086 227.584L188.282 226.517C184.428 236.642 177.107 241.346 170.514 242.914C167.177 243.708 164.079 243.682 161.764 243.177C159.224 242.624 158.411 241.704 158.317 241.496L155.586 242.738ZM191.086 227.584L193.89 228.651C194.518 226.999 195.06 225.234 195.505 223.352L192.586 222.662L189.666 221.972C189.279 223.609 188.813 225.121 188.282 226.517L191.086 227.584ZM172.641 213.162L170.793 215.525L189.238 229.947L191.086 227.584L192.934 225.221L174.489 210.798L172.641 213.162ZM115.593 235.02L114.988 237.958C115.609 238.086 116.212 238.232 116.788 238.389L117.58 235.496L118.372 232.602C117.675 232.411 116.949 232.236 116.199 232.081L115.593 235.02ZM117.58 235.496L118.09 232.539C117.538 232.444 117.001 232.314 116.478 232.153L115.593 235.02L114.709 237.886C115.473 238.122 116.26 238.312 117.07 238.452L117.58 235.496ZM137.586 109.835L134.601 110.139L137.016 133.804L140 133.499L142.985 133.195L140.57 109.53L137.586 109.835ZM140 133.499L141.416 130.854L133.007 126.354L131.592 128.999L130.176 131.644L138.585 136.144L140 133.499ZM162.086 229.203L165.018 229.836C167.17 219.88 165.236 206.605 158.96 191.567C152.657 176.464 141.87 159.322 125.92 141.5L123.684 143.501L121.449 145.502C137.037 162.92 147.423 179.502 153.422 193.877C159.449 208.316 160.946 220.272 159.154 228.569L162.086 229.203ZM123.684 143.501L125.92 141.5C125.792 141.358 125.669 141.243 125.596 141.177C125.513 141.103 125.431 141.033 125.361 140.975C125.224 140.861 125.072 140.74 124.956 140.648C124.825 140.545 124.731 140.47 124.657 140.409C124.622 140.38 124.608 140.367 124.608 140.368C124.609 140.368 124.619 140.378 124.636 140.394C124.652 140.409 124.685 140.442 124.728 140.49L122.5 142.499L120.272 144.508C120.398 144.648 120.52 144.76 120.593 144.826C120.675 144.9 120.756 144.969 120.826 145.027C120.962 145.14 121.115 145.26 121.23 145.352C121.36 145.455 121.454 145.529 121.526 145.589C121.561 145.618 121.574 145.63 121.573 145.629C121.572 145.628 121.561 145.618 121.543 145.601C121.527 145.585 121.493 145.551 121.449 145.502L123.684 143.501ZM131.592 128.999L128.958 127.563L121.05 142.065L123.684 143.501L126.318 144.937L134.226 130.435L131.592 128.999ZM22.58 237.496L19.8605 236.229C18.4877 239.176 18.9973 242.323 20.4296 244.913C21.8543 247.49 24.2682 249.712 27.2088 251.234L28.5881 248.57L29.9674 245.906C27.903 244.837 26.4431 243.389 25.6802 242.01C24.9249 240.644 24.9329 239.549 25.2995 238.762L22.58 237.496ZM28.5881 248.57L27.209 251.235C27.3127 251.288 27.4176 251.341 27.5235 251.394L28.8535 248.705L30.1835 246.016C30.1112 245.98 30.0391 245.943 29.9673 245.906L28.5881 248.57ZM28.8535 248.705L27.7195 251.482C31.0037 252.823 34.7604 254.098 39.1506 253.995L39.08 250.996L39.0094 247.996C35.8784 248.07 33.0516 247.178 29.9876 245.927L28.8535 248.705ZM98.5859 212.335L95.6402 212.903C96.259 216.112 97.7806 220.65 100.26 225.007C102.729 229.346 106.306 233.781 111.178 236.402L112.599 233.761L114.021 231.119C110.511 229.23 107.638 225.841 105.475 222.039C103.321 218.255 102.027 214.336 101.532 211.767L98.5859 212.335ZM112.599 233.761L111.788 236.649C112.602 236.877 113.372 237.198 114.086 237.613L115.593 235.02L117.101 232.426C115.927 231.743 114.685 231.23 113.411 230.872L112.599 233.761ZM115.593 235.02L116.478 232.153C115.627 231.89 114.808 231.542 114.021 231.119L112.599 233.761L111.178 236.402C112.287 236.999 113.464 237.502 114.709 237.886L115.593 235.02ZM112.599 233.761L113.41 230.872C107.364 229.175 100.454 230.925 95.7398 235.055C90.8555 239.335 88.3306 246.18 91.2693 254.194L94.0859 253.162L96.9025 252.129C94.86 246.558 96.5816 242.295 99.6942 239.568C102.977 236.691 107.814 235.533 111.788 236.649L112.599 233.761ZM28.58 248.592L27.4354 251.365C27.5296 251.404 27.6243 251.443 27.7195 251.482L28.8535 248.705L29.9876 245.927C29.9002 245.892 29.8125 245.856 29.7246 245.819L28.58 248.592ZM28.58 248.592L31.394 249.632C31.397 249.624 31.3999 249.616 31.4029 249.608L28.5881 248.57L25.7734 247.532C25.7709 247.539 25.7684 247.546 25.7659 247.553L28.58 248.592ZM28.5881 248.57L31.4029 249.608C32.1837 247.491 32.6476 245.591 32.9956 244.468C33.3619 243.285 33.724 242.445 34.4565 241.5L32.0859 239.662L29.7153 237.823C28.3901 239.532 27.756 241.105 27.2642 242.692C26.7541 244.339 26.4979 245.568 25.7734 247.532L28.5881 248.57ZM28.8535 248.705L27.5234 251.394C27.7643 251.513 28.0091 251.628 28.2575 251.738L29.474 248.996L30.6905 246.253C30.5183 246.177 30.3494 246.098 30.1836 246.016L28.8535 248.705ZM112.592 146.001L115.131 147.599L119.539 140.597L117 138.999L114.461 137.401L110.053 144.403L112.592 146.001ZM117 138.999L115.324 141.487L122.008 145.989L123.684 143.501L125.36 141.013L118.676 136.511L117 138.999Z" fill="black"/>
<ellipse cx="79.5859" cy="218.662" rx="4" ry="5" fill="black"/>
<circle cx="96.0859" cy="182.162" r="5.5" fill="black"/>
<ellipse cx="103.586" cy="159.162" rx="5" ry="6.5" fill="black"/>
<ellipse cx="125.086" cy="161.662" rx="5.5" ry="7" fill="black"/>
<ellipse cx="85.5859" cy="164.162" rx="4" ry="4.5" fill="black"/>
<circle cx="63.5859" cy="156.662" r="4" fill="black"/>
<ellipse cx="97.9522" cy="73.3639" rx="3.74156" ry="4.5" transform="rotate(26.7425 97.9522 73.3639)" fill="black"/>
<ellipse cx="49.1068" cy="71.9223" rx="3.43075" ry="4.5" transform="rotate(15.7067 49.1068 71.9223)" fill="black"/>
<circle cx="69.5859" cy="172.662" r="4" fill="black"/>
<ellipse cx="44.5859" cy="171.162" rx="4" ry="4.5" fill="black"/>
<ellipse cx="57.5859" cy="184.162" rx="4" ry="4.5" fill="black"/>
<ellipse cx="42.5859" cy="193.162" rx="4" ry="4.5" fill="black"/>
<circle cx="55.5859" cy="214.662" r="4" fill="black"/>
<circle cx="49.5859" cy="226.662" r="4" fill="black"/>
<ellipse cx="44.0859" cy="211.662" rx="3.5" ry="4" fill="black"/>
<ellipse cx="45.0859" cy="156.162" rx="3.5" ry="4.5" fill="black"/>
<circle cx="25.0859" cy="119.162" r="3.5" fill="black"/>
<ellipse cx="80.5859" cy="199.662" rx="4" ry="5" fill="black"/>
<circle cx="117.586" cy="221.662" r="4" fill="black"/>
<ellipse cx="143.086" cy="233.662" rx="4.5" ry="4" fill="black"/>
<ellipse cx="131.586" cy="221.162" rx="5" ry="5.5" fill="black"/>
<ellipse cx="149.586" cy="209.162" rx="5" ry="5.5" fill="black"/>
<ellipse cx="144.586" cy="189.162" rx="5" ry="4.5" fill="black"/>
<ellipse cx="127.086" cy="198.162" rx="5.5" ry="6.5" fill="black"/>
<ellipse cx="113.086" cy="206.662" rx="4.5" ry="4" fill="black"/>
<ellipse cx="91.0859" cy="205.662" rx="4.5" ry="4" fill="black"/>
<ellipse cx="83.0859" cy="232.662" rx="3.5" ry="4" fill="black"/>
<ellipse cx="97.5859" cy="93.1616" rx="6" ry="7.5" fill="black"/>
<ellipse cx="46.5859" cy="90.1616" rx="6" ry="7.5" fill="black"/>
<path d="M95.0859 53.6616L93.0859 63.6616M60.5859 53.1616L60.0859 63.1616" stroke="black" stroke-width="5" stroke-linecap="round"/>
<path d="M78.0001 51.999L77.0075 68.8738L77.0001 68.999" stroke="black" stroke-width="5" stroke-linecap="round"/>
<path d="M119.586 92.6615C120.919 92.3282 124.986 92.3615 130.586 95.1615M124.086 105.162L129.086 112.662M114.086 119.162L117.586 125.662M22.5859 86.1615C24.0859 84.8282 28.1859 82.6615 32.5859 84.6615M21.0001 102.662L24.5001 97.1615" stroke="black" stroke-width="5" stroke-linecap="round"/>
<path d="M60.0859 106.162V103.662C59.0986 103.662 58.2038 104.243 57.8021 105.145C57.4005 106.046 57.5672 107.1 58.2276 107.834L60.0859 106.162ZM78.5859 106.162L80.3984 107.883C81.0868 107.159 81.2774 106.094 80.8831 105.175C80.4888 104.257 79.5854 103.662 78.5859 103.662V106.162ZM90.7165 123.557C91.7631 122.656 91.8815 121.078 90.9809 120.031C90.0803 118.984 88.5019 118.866 87.4553 119.767L89.0859 121.662L90.7165 123.557ZM49.666 117.275C48.9001 116.126 47.3479 115.816 46.1991 116.581C45.0503 117.347 44.7399 118.9 45.5058 120.048L47.5859 118.662L49.666 117.275ZM60.0859 106.162V108.662H78.5859V106.162V103.662H60.0859V106.162ZM78.5859 106.162L76.7734 104.44L67.2734 114.44L69.0859 116.162L70.8984 117.883L80.3984 107.883L78.5859 106.162ZM69.0859 116.162L70.9441 114.489L61.9441 104.489L60.0859 106.162L58.2276 107.834L67.2276 117.834L69.0859 116.162ZM69.0859 116.162L66.5907 116.006C66.4542 118.19 66.5705 120.724 67.1547 123.079C67.7287 125.393 68.8348 127.847 70.9307 129.448C73.1568 131.149 76.0375 131.544 79.3422 130.569C82.5501 129.622 86.2966 127.36 90.7165 123.557L89.0859 121.662L87.4553 119.767C83.2751 123.363 80.1591 125.114 77.9264 125.773C75.7905 126.404 74.6524 125.999 73.9661 125.475C73.1494 124.851 72.4493 123.656 72.0076 121.875C71.5762 120.136 71.4675 118.133 71.581 116.318L69.0859 116.162ZM69.0859 116.162L66.7539 115.261C66.1117 116.923 65.1654 118.764 63.9874 120.348C62.7941 121.953 61.4809 123.138 60.1557 123.728C58.9323 124.273 57.5948 124.37 55.9956 123.62C54.2877 122.819 52.1336 120.976 49.666 117.275L47.5859 118.662L45.5058 120.048C48.2382 124.147 51.0174 126.808 53.8731 128.147C56.8374 129.537 59.6937 129.408 62.1911 128.295C64.5867 127.227 66.5214 125.32 68 123.331C69.4938 121.322 70.6434 119.067 71.4179 117.063L69.0859 116.162Z" fill="black"/>
<path d="M130.086 46.6616L117.586 58.1616L128.086 60.6616M117.586 58.1616L130.086 55.1616M32.0859 39.1616L40.5859 53.1616H29.5859M40.5859 53.1616L30.5859 47.1616" stroke="black" stroke-width="4" stroke-linecap="round" stroke-linejoin="bevel"/>
</svg>
